<svg width="418" height="414" viewBox="0 0 418 414" fill="none" xmlns="http://www.w3.org/2000/svg">
<path d="M16.1899 285.18C16.1899 216.18 16.1899 147.18 16.1899 78.1799C21.1899 61.2399 32.6999 56.5899 47.7699 56.8799C76.2299 57.4299 104.72 57.0399 133.19 57.0399H137.41C140.23 42.8999 146.57 37.7399 160.57 37.7299H176.13C176.13 35.7999 176.13 34.3299 176.13 32.8599C176.13 27.8599 176.91 22.8599 180.63 19.3799C183.81 16.4299 187.97 14.5399 191.69 12.1699H224.69C236 15.8499 241 23.7799 240.28 35.5099C240.328 36.262 240.459 37.0065 240.67 37.7299C246.74 37.7299 252.61 37.7299 258.47 37.7299C269.06 37.8099 276.38 43.9499 278.47 54.3799C278.63 55.1999 278.81 56.0199 279.02 57.0199H283.67C313.17 57.0199 342.667 57.0199 372.16 57.0199C374.779 56.9308 377.4 57.1185 379.98 57.5799C392.14 60.2299 400.2 70.3099 400.21 82.9599C400.25 148.827 400.25 214.697 400.21 280.57C400.21 281.07 400.21 281.57 400.21 282.07C399.67 294.69 389.94 305.28 377.33 306.21C369.5 306.79 361.59 306.47 353.72 306.55C352.26 306.55 350.8 306.55 349.06 306.55C348.35 315.74 347.68 324.44 346.99 333.14C345.78 348.46 344.82 363.8 343.24 379.08C342.24 389.18 333.04 396.38 322.76 396.08C317.904 395.927 313.269 394.018 309.713 390.709C306.156 387.399 303.921 382.912 303.42 378.08C303.11 375.08 302.92 372.08 302.68 369.08C302.04 361.13 301.4 353.18 300.76 345.18H281.59C284.8 353.81 288.05 362.04 290.91 370.4C295.29 383.2 286.41 395.75 272.91 396.03C267.79 396.14 262.66 396.03 257.54 396.03C246.8 396.03 240.54 391.69 236.75 381.66C232.49 370.33 228.19 359.02 224.05 347.66C223.28 345.55 222.25 344.82 220.05 344.86C212.18 344.99 204.3 345.01 196.43 344.86C193.96 344.81 193.04 345.78 192.24 347.97C187.92 359.81 183.49 371.607 178.95 383.36C175.9 391.22 169.95 395.55 161.53 395.98C155.3 396.3 149.03 396.18 142.79 395.98C134.04 395.73 126.4 389.68 125.01 381.08C124.476 376.918 124.876 372.689 126.18 368.7C128.62 360.77 131.86 353.09 134.92 344.9H130.28C114.28 344.9 98.2799 344.9 82.2799 344.9C68.8499 344.9 61.1099 337.14 61.0699 323.74C61.0699 318.15 61.0699 312.55 61.0699 306.46C59.3199 306.46 57.9899 306.46 56.6499 306.46C50.8999 306.39 45.1199 306.71 39.4199 306.16C28.5499 305.16 21.3199 299.08 17.5499 288.87C17.0699 287.74 16.6399 286.45 16.1899 285.18ZM278.63 69.8299C278.63 76.0799 278.63 81.8299 278.63 87.5399C278.57 100.13 270.56 108.16 257.98 108.17C224.853 108.17 191.73 108.17 158.61 108.17C145.76 108.17 137.8 100.17 137.75 87.3799C137.75 81.6599 137.75 75.9499 137.75 69.8299H44.1199C33.7099 69.8399 28.9999 74.5499 28.9999 84.8999C28.9999 149.4 28.9999 213.9 28.9999 278.4C28.9999 289.01 33.6999 293.75 44.2799 293.75H292.49C293.81 293.75 295.13 293.64 296.59 293.58C296.59 292.34 296.65 291.48 296.59 290.58C295.31 273.76 294.017 256.94 292.71 240.12C291.54 225.12 290.77 210.12 301.81 197.75C287.07 186.23 281.81 171.8 287 156.2C291.84 141.63 299.44 128.37 308.15 115.86C315.59 105.18 331.56 105.42 338.92 116.19C347.231 128.073 354.083 140.912 359.33 154.43C362.072 161.337 362.476 168.952 360.48 176.11C358.152 184.664 352.906 192.135 345.65 197.23C348.05 202.09 351.15 206.4 352.31 211.23C353.971 217.762 354.712 224.493 354.51 231.23C353.77 247.82 352.18 264.38 350.95 280.95C350.64 285.12 350.39 289.3 350.1 293.77C357.94 293.77 365.31 293.77 372.67 293.77C382.53 293.77 387.42 288.83 387.42 279.01C387.42 214.263 387.42 149.513 387.42 84.7599C387.42 74.6699 382.6 69.8599 372.48 69.8499H278.63V69.8299ZM74.3799 306.6C74.1858 306.978 74.0348 307.378 73.9299 307.79C73.9299 312.91 73.8499 318.03 73.8499 323.15C73.8499 330.37 75.7099 332.23 82.9499 332.23H299.75C299.2 325.03 298.65 318.33 298.2 311.62C297.87 306.62 297.93 306.62 292.87 306.62H74.3799V306.6ZM208 95.3999C224.487 95.3999 240.977 95.3999 257.47 95.3999C263.61 95.3999 265.84 93.1799 265.86 87.0499C265.86 77.6833 265.86 68.3133 265.86 58.9399C265.86 52.8099 263.6 50.5299 257.51 50.5299C224.657 50.5299 191.803 50.5299 158.95 50.5299C152.82 50.5299 150.59 52.7799 150.57 58.8999C150.57 68.2666 150.57 77.6366 150.57 87.0099C150.57 93.1699 152.8 95.3899 158.92 95.3999C175.26 95.4133 191.62 95.4133 208 95.3999ZM304.81 229.74C305.22 235.67 305.57 241.12 305.99 246.57C308.143 274.57 310.303 302.587 312.47 330.62C313.617 345.44 314.77 360.257 315.93 375.07C315.93 375.57 316.02 376.07 316.09 376.56C316.67 380.56 319.57 383.31 323.29 383.37C325.062 383.425 326.791 382.813 328.135 381.656C329.479 380.5 330.341 378.881 330.55 377.12C331.43 369.31 331.98 361.45 332.55 353.61C335.29 318.277 338.013 282.913 340.72 247.52C341.16 241.72 341.49 235.92 341.89 229.91C340.73 229.83 340.13 229.74 339.53 229.74H304.81ZM323.53 191.39C340.67 191.56 354.37 173.75 346.84 157.99C341.36 146.53 335.2 135.39 328.97 124.31C326.37 119.69 320.51 119.61 317.92 124.2C311.66 135.26 305.45 146.39 300.02 157.86C292.37 174 306.3 191.69 323.51 191.39H323.53ZM179.66 345C169.61 345 160.02 344.95 150.44 345.09C149.891 345.202 149.376 345.442 148.937 345.789C148.498 346.136 148.146 346.582 147.91 347.09C144.4 356.09 140.91 365.22 137.68 374.35C135.94 379.2 138.73 383.18 143.88 383.35C149.24 383.5 154.6 383.35 159.96 383.4C163.69 383.4 166.02 381.71 167.29 378.24C169.86 371.24 172.53 364.24 175.15 357.24C176.62 353.34 178.05 349.39 179.66 345ZM236.66 345C241.2 357 245.41 368.51 250.07 379.88C250.73 381.48 253.5 383.03 255.39 383.17C261.237 383.523 267.099 383.557 272.95 383.27C277.68 383.1 280.4 379.11 278.81 374.64C275.52 365.38 272.02 356.19 268.49 347.01C268.295 346.543 267.995 346.126 267.614 345.793C267.232 345.46 266.779 345.22 266.29 345.09C256.56 345 246.87 345.06 236.62 345.06L236.66 345ZM189 37.4599H227.39C227.39 35.2099 227.54 33.2199 227.39 31.2599C227.03 27.3599 224.7 25.0499 220.78 24.9999C212.407 24.8866 204.037 24.8866 195.67 24.9999C191.75 25.0499 189.42 27.3699 189.06 31.2599C188.84 33.2199 189 35.2199 189 37.4599ZM340.33 216.79C339.69 209.21 334.82 204.42 327.57 204.2C324.57 204.11 321.57 204.07 318.57 204.2C311.57 204.58 306.26 210.31 306.76 216.76L340.33 216.79Z" fill="#4F4F33"/>
<path d="M107.35 214.29C100.83 209.68 99.25 203.4 99.35 196.07C99.58 177.33 99.41 158.59 99.43 139.85C99.43 128 106.43 120.96 118.27 120.95C139.883 120.95 161.497 120.95 183.11 120.95C194.56 120.95 201.63 127.88 201.75 139.3C201.85 149.04 201.83 158.79 201.75 168.53C201.75 171.11 202.11 172.28 205.21 172.85C222.37 175.98 234 186.03 238.59 202.85C243.14 219.5 238.59 234.24 225.36 245.39C212.13 256.54 196.79 258.32 180.87 251.19C177.74 249.728 174.325 248.977 170.87 248.99C147.76 249.07 124.64 249.12 101.53 248.91C98.8746 248.786 96.3383 247.772 94.33 246.03C92.07 244.03 92.97 240.98 94.33 238.4C98.62 230.51 102.87 222.61 107.35 214.29ZM112.86 202.29L113.68 202.42C115.56 198.95 117.46 195.49 119.33 192.02C125.55 180.487 131.763 168.947 137.97 157.4C139.29 154.93 141.03 153.14 144.02 153.08C147.18 153.01 149.08 154.77 150.42 157.42C151.67 159.87 153 162.27 154.3 164.69L166.49 187.19C171.953 180.916 179.055 176.287 187 173.82C187.527 173.517 187.974 173.092 188.303 172.58C188.632 172.069 188.833 171.486 188.89 170.88C189.03 160.38 189.01 149.88 188.95 139.39C188.95 135.22 187.45 133.76 183.27 133.76C161.523 133.76 139.777 133.76 118.03 133.76C113.72 133.76 112.24 135.3 112.24 139.69C112.24 159.31 112.24 178.934 112.24 198.56C112.34 199.819 112.548 201.067 112.86 202.29V202.29ZM198.51 242.5C204.199 242.524 209.768 240.86 214.512 237.72C219.256 234.579 222.962 230.102 225.162 224.855C227.362 219.609 227.957 213.828 226.871 208.243C225.786 202.658 223.07 197.52 219.065 193.479C215.06 189.438 209.947 186.675 204.372 185.539C198.798 184.404 193.011 184.947 187.745 187.099C182.478 189.252 177.968 192.917 174.785 197.632C171.602 202.348 169.888 207.901 169.86 213.59C169.839 217.371 170.564 221.118 171.993 224.618C173.422 228.118 175.527 231.302 178.189 233.988C180.85 236.673 184.015 238.807 187.502 240.268C190.989 241.728 194.729 242.487 198.51 242.5V242.5ZM144.18 172.88L110.28 235.88H163.36C156.91 224.93 155.45 213.76 158.69 201.96C158.92 201.131 158.857 200.248 158.51 199.46C153.89 190.8 149.19 182.16 144.17 172.88H144.18Z" fill="#4F4F33"/>
<path d="M54.81 268.11H59.81C123.05 268.11 186.287 268.11 249.52 268.11C251.262 268.028 253.007 268.176 254.71 268.55C256.088 268.947 257.288 269.806 258.108 270.984C258.928 272.161 259.318 273.584 259.212 275.015C259.106 276.446 258.512 277.796 257.528 278.841C256.545 279.885 255.232 280.559 253.81 280.75C252.442 280.899 251.065 280.949 249.69 280.9H57.4C46.29 280.9 41.75 276.33 41.75 265.18C41.75 209.44 41.75 153.7 41.75 97.9596C41.75 87.2996 46.42 82.5996 57 82.5996C77.12 82.5996 97.24 82.5996 117.36 82.5996C120.88 82.5996 123.52 83.7296 124.67 87.1796C126.05 91.3096 122.88 95.3096 118.04 95.3796C109.29 95.4896 100.54 95.3796 91.8 95.3796H54.8L54.81 268.11Z" fill="#4F4F33"/>
<path d="M361.84 95.3999H300.48C299.231 95.4603 297.98 95.4101 296.74 95.2499C295.184 94.9837 293.783 94.1505 292.806 92.9112C291.829 91.6719 291.346 90.1145 291.45 88.5399C291.544 87.0302 292.182 85.6056 293.244 84.5286C294.306 83.4517 295.722 82.7951 297.23 82.6799C298.102 82.6132 298.976 82.5931 299.85 82.6199C319.963 82.6199 340.08 82.6199 360.2 82.6199C369.52 82.6199 374.6 87.6199 374.63 96.9299C374.63 106.93 374.7 116.93 374.63 126.93C374.63 131.05 371.84 133.74 368.17 133.72C364.5 133.7 362.04 131.08 361.89 126.83C361.89 125.96 361.89 125.08 361.89 124.21C361.89 115.963 361.89 107.717 361.89 99.4699C361.84 98.2399 361.84 96.9999 361.84 95.3999Z" fill="#4F4F33"/>
</svg>
