<svg width="404" height="393" viewBox="0 0 404 393" fill="none" xmlns="http://www.w3.org/2000/svg">
<path d="M163 357.6C148.31 364.55 133.76 366.53 114.63 357.68L112.17 360.36C93.4001 380.87 62.9301 380.76 44.9101 359.58C29.7401 341.73 27.1801 321.38 35.0701 299.58C35.5301 298.31 36.0701 297.06 36.3701 296.27C32.1001 293.27 27.6201 290.91 24.0401 287.55C15.7601 279.76 12.1501 270.05 13.0901 258.55C15.0901 233.86 24.1401 212.55 42.9901 196.02C49.0601 190.71 55.9901 186.39 62.7901 181.42C62.6284 181.068 62.4306 180.732 62.2001 180.42C43.0601 155.72 38.7901 128.1 46.2001 98.2703C46.8501 95.6303 46.4601 94.3903 44.1401 92.9103C29.3501 83.5103 22.2401 66.4703 25.6201 49.1303C27.3115 41.0598 31.3264 33.6603 37.1703 27.843C43.0142 22.0257 50.432 18.0447 58.5101 16.3903C75.9901 13.0903 93.1601 20.4603 102.38 35.4903C103.9 37.9703 105.15 38.4003 107.96 37.6503C128.188 32.0854 149.543 32.0854 169.77 37.6503C172.39 38.3603 173.58 38.0203 175.06 35.6003C179.892 27.6973 187.206 21.6178 195.859 18.3118C204.512 15.0059 214.016 14.6597 222.887 17.3275C231.757 19.9953 239.494 25.5267 244.888 33.0572C250.282 40.5878 253.029 49.6931 252.7 58.9503C252 74.1303 245 85.8003 232 93.8203C231.58 94.0803 231.18 94.3703 230.48 94.8203C234.992 109.514 235.972 125.066 233.34 140.21C230.733 155.525 224.127 169.879 214.19 181.82C226.895 188.432 238.028 197.702 246.83 209C246.83 201.57 247.42 195.19 246.71 189C245.17 175.56 249.18 164.55 257.58 153.92C268.71 139.83 278.4 124.6 288.73 109.92C292.81 104.1 296.89 104.13 301.01 110.01C314.2 128.83 327.43 147.63 340.47 166.55C341.89 168.699 342.674 171.205 342.73 173.78C342.9 197.53 342.83 221.27 342.83 245.02V249.64H347C357.12 249.64 367.25 249.64 377.37 249.64C382.74 249.64 384.84 251.75 384.85 257.15C384.85 284.024 384.85 310.894 384.85 337.76C384.85 343.63 382.85 345.62 376.97 345.63C333.23 345.63 289.487 345.607 245.74 345.56C242.85 345.56 241.47 346.43 240.07 348.99C230.92 365.69 217.27 375.67 197.67 375.53C184.88 375.44 174.36 369.76 165.67 360.53C164.78 359.61 164 358.67 163 357.6ZM140.39 201.66C142.65 201.49 146.52 201.28 150.39 200.92C190.64 197.13 219.22 169.92 222.49 130.59C225.18 98.2403 209.74 65.8103 175.56 52.2603C159.91 46.0503 143.66 44.6103 127 46.2603C88.3201 50.0503 58.9301 75.7003 55.2701 115.26C52.7701 142.26 60.8201 165.69 82.2701 183.34C98.5501 196.84 118 201.36 140.39 201.66ZM84.9401 267.89C103.03 271.5 115.1 282.1 122.07 298.38C129.04 314.66 128.33 330.94 121.3 346.93C131.09 353.12 147.57 353.05 156.3 346.8C149.3 330.92 148.66 314.69 155.47 298.59C162.47 282.13 174.6 271.5 192.78 267.86C192.28 263.63 191.95 259.54 191.29 255.52C188.6 239.34 182.74 224.52 171.85 212C170.41 210.34 169.14 209.67 166.74 210.26C148.591 214.727 129.636 214.786 111.46 210.43C108.71 209.78 107.14 210.29 105.4 212.36C92.0001 228.32 86.4101 247.13 84.9401 267.89ZM114.81 323.7C114.81 311.02 111.36 300.78 105.02 292.84C92.2401 276.84 70.8601 275.14 56.2401 288.95C38.1301 306.05 38.4501 338.06 56.8901 354.8C69.6401 366.37 87.6201 366.54 100.43 355.07C104.855 351.11 108.416 346.281 110.892 340.884C113.368 335.487 114.705 329.637 114.82 323.7H114.81ZM234.86 322.2C234.65 311.01 231.72 301.26 225 292.83C212.14 276.72 190.55 275.15 175.95 289.23C158.22 306.34 158.54 337.86 176.63 354.57C189.52 366.47 207.76 366.63 220.73 354.81C230.46 345.95 234.45 334.57 234.87 322.2H234.86ZM95.0801 206C88.0801 201.48 81.3201 197.31 74.8201 192.74C72.7301 191.27 71.4101 191.18 69.2301 192.33C41.9201 206.83 27.2801 229.49 25.0001 260.25C24.656 265.392 25.9938 270.507 28.8115 274.821C31.6291 279.136 35.7738 282.418 40.6201 284.17C42.6901 284.92 43.9401 284.66 45.4401 282.97C51.8771 275.546 60.6025 270.476 70.2401 268.56C72.4901 268.11 72.9701 267.16 73.1201 265.15C74.8301 243.25 81.3201 223.11 95.0801 206ZM182.77 206C184.87 209.06 187.42 212.45 189.62 216.05C198.77 231.05 203.22 247.59 204.52 265.05C204.68 267.22 205.26 268.19 207.65 268.67C216.523 270.5 224.631 274.981 230.9 281.52C234.9 285.52 234.95 285.66 239.97 282.78C249.97 277.02 253.53 268.35 252.26 256.9C248.94 227.01 233.8 205.53 207.19 191.9C206.727 191.668 206.218 191.54 205.7 191.525C205.182 191.509 204.667 191.607 204.19 191.81C197 196.43 189.91 201.22 182.77 206V206ZM372.67 261.87H301.13V333.4H372.66L372.67 261.87ZM330.57 249.48V177.88H258.83C258.83 191.88 259.37 205.67 258.65 219.37C258.1 229.9 261.65 239.42 263.52 249.46L330.57 249.48ZM51.6701 83.3103C60.7201 65.0303 74.5401 51.8103 92.6701 43.0903C88.0001 33.0003 75.2601 26.3403 63.5201 27.7203C57.2687 28.4185 51.3949 31.0641 46.7292 35.2829C42.0636 39.5018 38.842 45.0805 37.5201 51.2303C36.1516 57.3874 36.7865 63.8208 39.3319 69.5918C41.8774 75.3627 46.2004 80.1693 51.6701 83.3103ZM184.77 43.0803C203.13 51.8503 216.83 65.1503 225.77 83.1603C235.77 78.1603 242.17 65.4103 240.56 54.1603C238.56 40.2603 228.9 30.2903 215.12 27.9403C209.12 27.0444 202.99 28.0156 197.561 30.7222C192.131 33.4287 187.666 37.7397 184.77 43.0703V43.0803ZM288.56 333.41V261.84H265.08L263.08 273.59C265.69 273.59 268.08 273.51 270.42 273.59C274.42 273.75 276.73 275.95 276.76 279.94C276.847 291.687 276.847 303.434 276.76 315.18C276.76 319.18 274.4 321.35 270.42 321.54C268.92 321.61 267.42 321.54 265.92 321.54H247.06L245.89 333.36L288.56 333.41ZM264.56 165.41H325.21L294.87 122.1L264.56 165.41ZM264.74 285.26C261.16 285.66 257.54 285.15 254.99 286.56C250.17 289.22 245.99 292.99 241.49 296.32L245.94 309.39H264.74V285.26Z" fill="#4F4F33"/>
<path d="M132.79 170.82C132.79 164.95 132.86 159.34 132.71 153.74C132.512 152.708 131.92 151.794 131.06 151.19C127.88 148.77 124.56 146.55 121.34 144.19C115.6 139.99 113.46 133.73 115.52 127.41C117.58 121.09 122.65 117.62 129.83 117.59C135.95 117.59 142.07 117.59 148.19 117.59C154.69 117.59 159.73 121.07 161.84 126.78C162.956 129.66 163.114 132.824 162.291 135.801C161.468 138.779 159.707 141.412 157.27 143.31C153.86 146.03 150.17 148.39 146.68 151.03C145.88 151.63 144.91 152.66 144.89 153.52C144.73 159.24 144.81 164.97 144.81 170.68C159.32 171.13 173.52 158.79 174.81 144.89C175.17 140.89 177.44 138.58 180.81 138.61C184.18 138.64 186.86 141.38 186.73 145.38C186.43 154.7 182.53 162.49 176.07 169.03C155.07 190.25 114.69 187.82 97.4499 164.33C93.1379 158.749 90.8054 151.892 90.8199 144.84C90.8199 141.24 93.2199 138.76 96.4899 138.62C98.0154 138.518 99.5197 139.021 100.677 140.021C101.833 141.02 102.55 142.436 102.67 143.96C103.75 159.35 113.99 166.05 127.12 170.09C128.199 170.405 129.298 170.645 130.41 170.81C131.202 170.866 131.997 170.869 132.79 170.82ZM139 129.59C136.13 129.59 133.25 129.44 130.39 129.66C129.22 129.75 127.39 130.39 127.15 131.19C126.91 131.99 127.7 133.8 128.57 134.52C131.283 136.723 134.125 138.764 137.08 140.63C137.518 140.89 138.009 141.047 138.517 141.088C139.025 141.13 139.535 141.055 140.01 140.87C143.27 138.789 146.424 136.546 149.46 134.15C150.16 133.59 150.79 131.94 150.46 131.32C150.129 130.858 149.704 130.472 149.213 130.188C148.721 129.903 148.175 129.727 147.61 129.67C144.77 129.44 141.89 129.59 139 129.59Z" fill="#4F4F33"/>
<path d="M108.76 111.67C108.703 113.246 108.038 114.739 106.905 115.835C105.771 116.932 104.257 117.546 102.68 117.55C101.201 117.381 99.8375 116.668 98.8549 115.55C97.8723 114.431 97.3405 112.987 97.363 111.499C97.3854 110.01 97.9605 108.583 98.9764 107.495C99.9922 106.407 101.376 105.735 102.86 105.61C104.438 105.657 105.935 106.315 107.036 107.446C108.137 108.577 108.755 110.092 108.76 111.67V111.67Z" fill="#4F4F33"/>
<path d="M168.83 111.29C168.913 109.714 169.613 108.235 170.779 107.172C171.945 106.109 173.483 105.548 175.06 105.61C175.892 105.578 176.721 105.719 177.495 106.024C178.269 106.329 178.971 106.792 179.557 107.383C180.142 107.975 180.599 108.681 180.896 109.458C181.194 110.235 181.327 111.066 181.287 111.897C181.246 112.728 181.034 113.542 180.662 114.286C180.29 115.031 179.768 115.69 179.127 116.221C178.487 116.753 177.744 117.146 176.943 117.374C176.143 117.603 175.304 117.663 174.48 117.55C172.904 117.46 171.427 116.752 170.37 115.58C169.312 114.408 168.759 112.867 168.83 111.29V111.29Z" fill="#4F4F33"/>
<path d="M336.69 321.58C331.07 321.58 325.44 321.65 319.82 321.58C314.2 321.51 311.33 317.35 313.82 312.24C319.53 300.59 325.28 288.95 331.34 277.48C332.27 275.73 334.91 273.91 336.78 273.89C338.65 273.87 341.33 275.66 342.25 277.4C348.37 288.98 354.19 300.73 359.94 312.5C362.26 317.26 359.59 321.43 354.29 321.55C348.44 321.68 342.56 321.58 336.69 321.58ZM328.69 309.35H345L336.82 293L328.69 309.35Z" fill="#4F4F33"/>
<path d="M295.09 189.59C299.833 189.64 304.456 191.094 308.373 193.769C312.291 196.444 315.328 200.22 317.1 204.62C318.873 209.02 319.302 213.847 318.334 218.49C317.365 223.134 315.042 227.386 311.657 230.711C308.273 234.035 303.98 236.281 299.32 237.167C294.659 238.053 289.841 237.537 285.474 235.686C281.106 233.835 277.385 230.731 274.78 226.766C272.176 222.801 270.805 218.154 270.84 213.41C270.864 210.252 271.51 207.13 272.742 204.223C273.975 201.316 275.768 198.68 278.021 196.467C280.274 194.254 282.941 192.508 285.87 191.328C288.799 190.148 291.932 189.557 295.09 189.59V189.59ZM306.81 213.69C306.836 211.311 306.154 208.979 304.851 206.988C303.548 204.998 301.683 203.44 299.493 202.511C297.303 201.583 294.886 201.327 292.55 201.775C290.213 202.223 288.063 203.356 286.372 205.029C284.681 206.702 283.525 208.84 283.051 211.171C282.577 213.502 282.807 215.922 283.712 218.122C284.616 220.322 286.154 222.204 288.13 223.528C290.106 224.853 292.431 225.56 294.81 225.56C297.97 225.56 301.003 224.314 303.25 222.092C305.496 219.869 306.776 216.85 306.81 213.69Z" fill="#4F4F33"/>
</svg>
