<svg width="511" height="400" viewBox="0 0 511 400" fill="none" xmlns="http://www.w3.org/2000/svg">
<path d="M218.409 205.068C215.119 205.068 212.214 202.916 211.255 199.766L188.534 125.13H120.48C116.347 125.13 112.998 121.781 112.998 117.649C112.998 113.52 116.347 110.171 120.48 110.171H194.074C197.368 110.171 200.273 112.323 201.232 115.473L218.409 171.906L243.501 89.4891C244.456 86.3391 247.364 84.187 250.655 84.187C253.945 84.187 256.85 86.3391 257.809 89.4891L268.666 125.158H334.444C338.573 125.158 341.921 128.507 341.921 132.639C341.921 136.768 338.573 140.117 334.444 140.117H263.126C259.836 140.117 256.928 137.965 255.972 134.818L250.655 117.349L225.563 199.766C224.608 202.916 221.703 205.068 218.409 205.068V205.068Z" fill="#4F4F33"/>
<path d="M495.223 62.955C493.192 59.3527 488.63 58.0817 485.032 60.1129C481.437 62.1402 480.163 66.7016 482.194 70.3C491.219 86.3078 496.011 104.487 496.042 122.873C496.135 171.89 467.968 226.421 412.33 284.947C367.032 332.596 316.202 368.986 296.452 382.416C293.149 384.666 288.88 384.666 285.574 382.416C268.066 370.51 225.504 340.124 184.284 299.746H254.066V330.054C254.066 339.676 261.894 347.504 271.516 347.504H287.808C297.434 347.504 305.262 339.676 305.262 330.054V329.422C306.077 329.539 306.908 329.621 307.754 329.621H324.046C333.668 329.621 341.496 321.793 341.496 312.171V226.814C341.496 217.192 333.668 209.364 324.046 209.364H307.754C306.908 209.364 306.077 209.446 305.262 209.567V208.931C305.262 199.309 297.434 191.481 287.808 191.481H271.516C261.894 191.481 254.066 199.309 254.066 208.931V238.502H230.487C226.354 238.502 223.005 241.851 223.005 245.98C223.005 250.112 226.354 253.461 230.487 253.461H254.066V284.791H87.4345V253.461H196.658C200.791 253.461 204.14 250.112 204.14 245.98C204.14 241.851 200.791 238.502 196.658 238.502H130.768C100.986 197.306 85.9179 158.417 85.9842 122.877C86.0934 63.3371 134.596 14.959 194.136 14.959H194.288C227.185 15.0019 257.882 29.7777 278.51 55.4931C281.567 59.3059 286.124 61.4891 291.013 61.4891C295.902 61.4891 300.459 59.302 303.516 55.4931C324.143 29.7777 354.841 15.0058 387.738 14.959H387.89C415.535 14.959 441.882 25.4853 462.104 44.612C465.102 47.4502 469.839 47.3176 472.677 44.3196C475.515 41.3176 475.383 36.5847 472.381 33.7465C449.371 11.9766 419.375 0 387.89 0C387.835 0 387.773 0 387.714 0C350.268 0.0506819 315.325 16.8655 291.847 46.1363C291.422 46.6627 290.6 46.6627 290.179 46.1363C266.701 16.8694 231.758 0.0545813 194.311 0C194.249 0 194.198 0 194.136 0C126.366 0 71.1499 55.0759 71.0252 122.85C70.9589 159.017 84.9043 197.871 112.499 238.502H87.4345V208.927C87.4345 199.306 79.6061 191.477 69.9842 191.477H53.688C44.0662 191.477 36.2377 199.306 36.2377 208.927V209.563C35.4229 209.446 34.5925 209.364 33.7465 209.364H17.4503C7.82844 209.364 0 217.192 0 226.814V312.167C0 321.789 7.82844 329.617 17.4503 329.617H33.7465C34.5925 329.617 35.4229 329.535 36.2377 329.418V330.054C36.2377 339.676 44.0662 347.504 53.688 347.504H69.9842C79.6061 347.504 87.4345 339.676 87.4345 330.054V299.746H163.181C208.382 346.272 257.793 381.613 277.161 394.787C281.368 397.648 286.19 399.079 291.009 399.079C295.832 399.079 300.654 397.648 304.861 394.787C325.013 381.083 376.876 343.949 423.169 295.251C481.547 233.844 511.098 175.836 511.001 122.846C510.962 101.898 505.504 81.1889 495.223 62.955V62.955ZM307.754 224.323H324.05C325.422 224.323 326.541 225.442 326.541 226.814V312.167C326.541 313.543 325.422 314.662 324.05 314.662H307.754C306.381 314.662 305.262 313.543 305.262 312.167V226.814C305.262 225.442 306.381 224.323 307.754 224.323V224.323ZM269.025 208.927C269.025 207.555 270.14 206.436 271.516 206.436H287.808C289.185 206.436 290.303 207.555 290.303 208.927V330.054C290.303 331.426 289.185 332.545 287.808 332.545H271.516C270.14 332.545 269.025 331.426 269.025 330.054V208.927ZM72.4755 330.054C72.4755 331.43 71.3566 332.549 69.9842 332.549H53.688C52.3157 332.549 51.1968 331.43 51.1968 330.054V270.916C51.1968 266.787 47.8478 263.438 43.7153 263.438C39.5867 263.438 36.2377 266.787 36.2377 270.916V312.167C36.2377 313.543 35.1188 314.662 33.7426 314.662H17.4503C16.0779 314.662 14.959 313.543 14.959 312.167V226.814C14.959 225.442 16.0779 224.323 17.4503 224.323H33.7465C35.1188 224.323 36.2377 225.442 36.2377 226.814V236.003C36.2377 240.136 39.5867 243.481 43.7192 243.481C47.8478 243.481 51.1968 240.136 51.1968 236.003V208.927C51.1968 207.555 52.3157 206.436 53.6919 206.436H69.9842C71.3566 206.436 72.4755 207.555 72.4755 208.927V330.054Z" fill="#4F4F33"/>
</svg>
