<svg width="512" height="512" viewBox="0 0 512 512" fill="none" xmlns="http://www.w3.org/2000/svg">
<path d="M422.682 145.325C415.928 134.643 405.255 127.95 391.816 125.967C379.769 124.19 365.85 126.401 350.449 132.539C328.324 141.357 322.778 140.219 321.987 139.958C319.021 137.896 313.669 124.689 309.743 114.997C306.606 107.256 303.051 98.482 298.476 88.479C282.336 53.19 258.76 39.019 241.824 33.345C228.036 28.727 200.841 28.858 171.245 29.361L174.32 10C174.724 7.444 174.005 4.866 172.348 2.926C170.76 1.066 168.461 0 166.043 0H114.796C112.378 0 110.079 1.066 108.491 2.926C106.834 4.865 106.116 7.443 106.52 10.005L113.828 56.016C109.206 57.251 105.788 61.462 105.788 66.468V83.845C105.788 89.71 110.477 94.489 116.301 94.658V131.995C116.301 136.143 119.663 139.506 123.812 139.506C127.96 139.506 131.323 136.143 131.323 131.995V94.674H149.517V385.348H131.323V167.494C131.323 163.346 127.961 159.983 123.812 159.983C119.664 159.983 116.301 163.346 116.301 167.494V385.365C110.477 385.534 105.788 390.314 105.788 396.178V413.555C105.788 418.56 109.206 422.771 113.827 424.007L107.599 463.227H98.334C89.23 463.227 81.824 470.633 81.824 479.736V495.491C81.824 504.594 89.23 512 98.334 512H275.041C284.145 512 291.551 504.594 291.551 495.491V479.736C291.551 470.633 284.145 463.227 275.041 463.227H272.031C276.442 444.664 282.19 427.668 290.255 409.229C291.917 405.429 290.183 401.001 286.382 399.338C282.579 397.677 278.154 399.411 276.491 403.21C267.552 423.652 261.326 442.404 256.605 463.227H204.302C219.939 429.805 249.528 385.21 280.522 342.388C280.872 341.997 281.183 341.571 281.446 341.113C333.054 269.93 388.202 204.009 389.102 202.965C395.609 195.416 415.41 172.443 400.417 157.449C392.665 149.697 379.209 150.573 359.278 160.125C338.379 170.143 321.531 173.001 309.206 168.622C295.074 163.6 288.619 149.923 283.432 138.933C283.066 138.157 282.711 137.404 282.363 136.677C265.247 100.866 228.494 92.925 194.5 92.01C194.439 92.009 194.379 92.001 194.318 92.001C194.301 92.001 194.285 92.003 194.268 92.004C186.266 91.796 178.419 91.974 171.021 92.268C171.033 92.258 171.043 92.247 171.054 92.238C171.346 92 171.626 91.749 171.891 91.483C171.92 91.454 171.946 91.421 171.975 91.391C172.206 91.154 172.427 90.908 172.635 90.651C172.713 90.555 172.782 90.454 172.856 90.356C173.007 90.156 173.155 89.954 173.292 89.744C173.37 89.624 173.442 89.5 173.515 89.377C173.634 89.177 173.749 88.975 173.856 88.767C173.925 88.633 173.989 88.496 174.053 88.359C174.149 88.151 174.238 87.94 174.32 87.725C174.375 87.582 174.429 87.44 174.478 87.295C174.553 87.072 174.617 86.845 174.678 86.616C174.716 86.472 174.757 86.33 174.789 86.184C174.845 85.93 174.886 85.672 174.924 85.411C174.942 85.285 174.968 85.161 174.982 85.033C175.025 84.643 175.05 84.247 175.05 83.846V66.468C175.05 66.121 175.03 65.78 174.998 65.441C174.988 65.332 174.97 65.225 174.956 65.117C174.927 64.888 174.895 64.661 174.852 64.436C174.829 64.314 174.801 64.193 174.774 64.072C174.727 63.864 174.674 63.658 174.615 63.455C174.58 63.335 174.545 63.216 174.506 63.098C174.438 62.89 174.361 62.685 174.28 62.482C174.239 62.379 174.201 62.275 174.158 62.174C174.046 61.916 173.924 61.665 173.793 61.418C173.772 61.378 173.754 61.336 173.733 61.297C173.578 61.013 173.409 60.738 173.23 60.47C173.176 60.388 173.116 60.311 173.059 60.232C172.929 60.048 172.795 59.866 172.654 59.69C172.579 59.597 172.5 59.507 172.422 59.416C172.288 59.26 172.149 59.107 172.006 58.959C171.921 58.871 171.835 58.784 171.747 58.699C171.596 58.552 171.439 58.411 171.279 58.273C171.193 58.199 171.11 58.124 171.022 58.052C170.825 57.892 170.62 57.741 170.412 57.595C170.356 57.556 170.303 57.513 170.246 57.474C169.979 57.294 169.702 57.127 169.419 56.971C169.342 56.929 169.261 56.892 169.182 56.852C168.972 56.743 168.76 56.639 168.542 56.543C168.433 56.495 168.321 56.453 168.21 56.408C168.015 56.33 167.817 56.257 167.617 56.19C167.497 56.15 167.376 56.113 167.255 56.077C167.173 56.053 167.094 56.023 167.011 56.001L168.107 49.097L168.849 44.423C195.9 43.951 225.266 43.639 237.049 47.586C251.166 52.315 270.912 64.332 284.812 94.724C289.249 104.427 292.738 113.038 295.829 120.665C302.725 137.685 307.281 148.929 314.661 153.078C321.974 157.191 333.952 155.28 356.006 146.491C368.916 141.346 380.226 139.438 389.62 140.826C398.598 142.15 405.639 146.481 409.982 153.351C418.528 166.868 418.304 178.559 394.384 212.103C345.962 280.007 313.448 330.523 292.06 371.08C290.125 374.749 291.531 379.292 295.2 381.227C298.866 383.163 303.412 381.757 305.346 378.087C326.413 338.139 358.592 288.168 406.614 220.825C429.047 189.373 437.689 169.061 422.682 145.325ZM363.059 174.925C363.962 174.51 364.857 174.109 365.773 173.67C382.2 165.796 388.684 166.959 389.795 168.07C393.008 171.283 388.495 180.661 377.725 193.157C377.446 193.481 371.991 199.997 363.059 210.954V174.925ZM322.751 185.644C330.491 185.518 338.888 183.965 348.037 180.929V229.539C340.534 238.898 331.963 249.699 322.751 261.505V185.644ZM282.444 166.933C287.718 173.491 294.655 179.393 304.177 182.777C305.341 183.191 306.529 183.548 307.73 183.874V280.923C299.512 291.641 291 302.905 282.444 314.457V166.933ZM158.312 15.021L151.86 55.638H128.978L122.526 15.021H158.312ZM120.81 79.653V70.66H160.03V79.653H120.81V79.653ZM120.81 400.37H160.03V409.363H120.81V400.37ZM158.03 463.227H122.81L128.978 424.385H151.861L158.03 463.227ZM242.136 116.606C252.524 121.677 261.353 129.255 267.422 140.448V334.993C258.797 346.94 250.281 359.024 242.136 370.975V116.606V116.606ZM201.829 107.339C210.475 107.882 219.041 109.018 227.115 111.132V392.86C227.115 393.075 227.129 393.287 227.147 393.497C217.695 408.078 209.087 422.18 201.829 435.28V107.339ZM275.042 478.248C275.863 478.248 276.53 478.915 276.53 479.736V495.491C276.53 496.312 275.862 496.979 275.042 496.979H98.334C97.513 496.979 96.846 496.312 96.846 495.491V479.736C96.846 478.915 97.514 478.248 98.334 478.248H275.042ZM186.808 106.919V463.226H173.24L167.012 424.007C171.634 422.772 175.052 418.561 175.052 413.555V396.178C175.052 390.313 170.363 385.534 164.539 385.365V107.592C171.644 107.249 179.163 106.936 186.808 106.919Z" fill="#4F4F33"/>
</svg>
