<svg width="499" height="499" viewBox="0 0 499 499" fill="none" xmlns="http://www.w3.org/2000/svg">
<g clip-path="url(#clip0)">
<path d="M211.057 161.064C255.158 161.064 291.041 125.184 291.041 81.0793C291.041 36.9784 255.158 1.09473 211.057 1.09473C166.952 1.09473 131.072 36.9784 131.072 81.0793C131.072 125.184 166.952 161.064 211.057 161.064V161.064ZM203.058 17.6462V33.0886H219.055V17.6462C247.944 21.2666 270.858 44.1919 274.49 73.0809H259.048V89.0778H274.49C270.87 117.971 247.944 140.884 219.055 144.516V129.07H203.058V144.516C174.166 140.892 151.252 117.971 147.62 89.0778H163.066V73.0809H147.62C151.252 44.1919 174.166 21.2744 203.058 17.6462V17.6462Z" fill="#4F4F33"/>
<path d="M219.055 84.3912V49.0854H203.058V77.7674L189.405 91.4211L200.715 102.731L219.055 84.3912Z" fill="#4F4F33"/>
<path d="M499.002 377.022C499.002 366.61 492.288 357.811 483.005 354.499V217.053C483.005 203.825 472.237 193.058 459.009 193.058H414.897C398.283 172.952 373.217 161.064 347.031 161.064C320.841 161.064 295.775 172.952 279.161 193.058H235.052C221.821 193.058 211.057 203.825 211.057 217.053V354.499C201.77 357.811 195.06 366.61 195.06 377.022V465.005H211.057V473.004C211.057 486.236 221.821 496.999 235.052 496.999H267.046C280.274 496.999 291.042 486.236 291.042 473.004V465.005H403.02V473.004C403.02 486.236 413.784 496.999 427.015 496.999H459.009C472.237 496.999 483.005 486.236 483.005 473.004V465.005H499.002V377.022ZM323.035 296.081C306.988 294.718 296.142 292.062 284.984 289.274C277.091 287.297 269.026 285.298 259.048 283.763V265.044C259.048 260.639 262.637 257.046 267.046 257.046H315.037C319.442 257.046 323.035 260.639 323.035 265.044V296.081ZM281.098 304.798C297.302 308.852 314.053 313.035 347.031 313.035C380.005 313.035 396.756 308.852 412.96 304.798C427.461 301.174 441.364 297.76 467.008 297.159V353.027H227.054V297.167C252.694 297.768 266.605 301.174 281.098 304.798ZM435.014 283.771C425.039 285.306 416.974 287.305 409.074 289.281C397.916 292.07 387.062 294.718 371.026 296.089V265.044C371.026 260.639 374.615 257.046 379.025 257.046H427.015C431.421 257.046 435.014 260.639 435.014 265.044V283.771ZM235.052 209.055H287.042L289.44 205.856C302.965 187.828 324.488 177.061 347.031 177.061C369.569 177.061 391.093 187.828 404.617 205.856L407.019 209.055H459.009C463.415 209.055 467.008 212.648 467.008 217.053V281.17C461.185 281.306 455.85 281.56 451.011 281.947V265.044C451.011 251.816 440.243 241.049 427.015 241.049H379.025C365.793 241.049 355.029 251.816 355.029 265.044V296.913C352.444 296.975 349.87 297.038 347.031 297.038C344.192 297.038 341.614 296.975 339.032 296.913V265.044C339.032 251.816 328.265 241.049 315.037 241.049H267.046C253.814 241.049 243.051 251.816 243.051 265.044V281.947C238.212 281.56 232.877 281.306 227.054 281.17V217.053C227.054 212.648 230.643 209.055 235.052 209.055ZM275.045 473.004C275.045 477.413 271.452 481.002 267.046 481.002H235.052C230.643 481.002 227.054 477.413 227.054 473.004V465.005H275.045V473.004ZM467.008 473.004C467.008 477.413 463.415 481.002 459.009 481.002H427.015C422.606 481.002 419.017 477.413 419.017 473.004V465.005H467.008V473.004ZM483.005 449.009H211.057V377.022C211.057 372.617 214.646 369.024 219.055 369.024H475.006C479.412 369.024 483.005 372.617 483.005 377.022V449.009Z" fill="#4F4F33"/>
<path d="M227.054 417.015H467.008V433.012H227.054V417.015Z" fill="#43432B"/>
<path d="M182.156 305.036L144.828 193.058H37.3209L0 305.036H67.0847V449.008H59.0863C45.8545 449.008 35.0909 459.776 35.0909 473.004V496.999H147.069V473.004C147.069 459.776 136.302 449.008 123.074 449.008H115.076V305.036H147.069V354.499C137.782 357.811 131.072 366.61 131.072 377.022C131.072 390.254 141.836 401.018 155.068 401.018C168.296 401.018 179.063 390.254 179.063 377.022C179.063 366.61 172.35 357.811 163.066 354.499V305.036H182.156ZM155.068 385.021C150.659 385.021 147.069 381.432 147.069 377.022C147.069 372.617 150.659 369.024 155.068 369.024C159.473 369.024 163.066 372.617 163.066 377.022C163.066 381.432 159.473 385.021 155.068 385.021ZM48.8539 209.055H133.31L159.969 289.039H22.1871L48.8539 209.055ZM131.072 473.004V481.002H51.0878V473.004C51.0878 468.598 54.677 465.005 59.0863 465.005H123.074C127.479 465.005 131.072 468.598 131.072 473.004ZM99.0786 449.008H83.0817V305.036H99.0786V449.008Z" fill="#4F4F33"/>
</g>
<defs>
<clipPath id="clip0">
<rect width="499" height="499" fill="white"/>
</clipPath>
</defs>
</svg>
