<svg width="512" height="512" viewBox="0 0 512 512" fill="none" xmlns="http://www.w3.org/2000/svg">
<path d="M24.1548 393.569C24.3748 394.669 24.8235 395.711 25.472 396.626C26.1205 397.541 26.9542 398.31 27.919 398.882C28.8837 399.454 29.958 399.817 31.0721 399.947C32.1862 400.077 33.3152 399.971 34.3858 399.636L81.5428 384.9C79.0568 393.443 79.5923 402.582 83.059 410.777C86.5256 418.971 92.7115 425.719 100.574 429.884C100.808 430.007 101.048 430.12 101.293 430.22L177.324 461.272L184.41 482.531C184.941 484.124 185.96 485.509 187.322 486.491C188.684 487.472 190.321 488.001 192 488H272C273.037 488 274.064 487.799 275.024 487.406L415.046 430.219C415.291 430.119 415.531 430.006 415.765 429.883C423.394 425.841 429.451 419.363 432.973 411.48C436.494 403.597 437.277 394.763 435.197 386.383L477.614 399.639C478.684 399.974 479.813 400.08 480.927 399.95C482.042 399.82 483.116 399.457 484.081 398.885C485.045 398.313 485.879 397.544 486.528 396.629C487.176 395.714 487.625 394.672 487.845 393.572L495.845 353.572C496.227 351.66 495.898 349.675 494.919 347.988C493.94 346.302 492.38 345.031 490.53 344.414L466.53 336.414C464.888 335.866 463.112 335.866 461.47 336.414L441.045 343.222L382.978 306.93L363.778 230.13C362.242 223.971 359.39 218.218 355.418 213.267C351.447 208.316 346.45 204.283 340.771 201.447C340.415 201.269 288.002 185.447 288.002 185.447V164.587C288.002 164.316 287.988 164.044 287.961 163.774C293.007 159.281 297.045 153.77 299.809 147.604C302.574 141.438 304.002 134.757 304 128V96.0003C304 89.0937 302.506 82.2689 299.621 75.9936C296.737 69.7183 292.529 64.1411 287.287 59.6443L285.057 48.4893C283.622 41.3162 280.268 34.667 275.351 29.2507C270.434 23.8343 264.14 19.854 257.138 17.7342C250.137 15.6143 242.692 15.4345 235.596 17.2137C228.501 18.993 222.021 22.6647 216.849 27.8373C206.402 38.2277 198.119 50.5869 192.481 64.1996C186.842 77.8123 183.96 92.4081 184 107.142V109.4C184.007 116.267 182.316 123.029 179.076 129.084C175.835 135.139 171.148 140.297 165.43 144.1L163.562 145.344C162.396 146.122 161.454 147.192 160.832 148.447C160.209 149.702 159.928 151.099 160.015 152.498C160.102 153.897 160.555 155.248 161.328 156.416C162.102 157.585 163.168 158.53 164.422 159.156L170.622 162.256C178.657 166.262 187.515 168.341 196.493 168.329C205.471 168.317 214.323 166.214 222.348 162.187C222.886 162.721 223.436 163.238 223.999 163.739V185.439C223.999 185.439 171.586 201.26 171.23 201.439C165.551 204.275 160.554 208.308 156.582 213.259C152.611 218.21 149.759 223.963 148.223 230.122L129.023 306.922L70.9548 343.219L50.5298 336.411C48.8876 335.863 47.1119 335.863 45.4698 336.411L21.4698 344.411C19.62 345.028 18.0591 346.299 17.0804 347.985C16.1017 349.672 15.7725 351.657 16.1548 353.569L24.1548 393.569ZM182.555 446.127L107.732 415.567C103.721 413.36 100.474 409.989 98.4168 405.9C96.36 401.81 95.5904 397.193 96.2096 392.658C96.8288 388.122 98.8077 383.88 101.885 380.491C104.963 377.103 108.995 374.726 113.451 373.674C115.002 373.308 116.587 373.103 118.18 373.064H118.206C122.834 372.959 127.381 374.29 131.222 376.873C131.33 376.945 131.44 377.015 131.553 377.082L233.353 437.97L224.51 439.739L202.525 432.411C201.115 431.941 199.603 431.873 198.157 432.214C196.711 432.556 195.388 433.293 194.338 434.343L182.555 446.127ZM143.448 365.553L153.448 362.427C157.295 361.216 160.86 359.245 163.932 356.63C167.004 354.016 169.52 350.812 171.332 347.208L194.794 300.3L200 306.806V317.614C200.001 323.634 199.031 329.614 197.126 335.323L192.41 349.47L185.01 371.679L173.288 383.4L143.448 365.553ZM197.766 472L193.153 458.161L202.161 449.153L221.47 455.589C222.791 456.03 224.204 456.118 225.57 455.845L257.725 449.414L262.242 472H197.766ZM261.078 432.426L256.696 433.302C256.611 433.247 256.532 433.187 256.444 433.134L187.444 391.867L197.654 381.657C198.532 380.779 199.193 379.708 199.587 378.53L205.766 360H306.233L312.41 378.53C312.803 379.708 313.465 380.779 314.343 381.657L326.177 393.49L261.078 432.426ZM299.694 340.383L300.9 344H211.1L212.306 340.382C214.754 333.041 216.002 325.353 216 317.614V312H296V317.614C295.998 325.353 297.245 333.042 299.694 340.383V340.383ZM312 317.614V306.806L317.206 300.299L340.66 347.208C342.471 350.813 344.988 354.017 348.06 356.631C351.132 359.245 354.697 361.216 358.545 362.427L371.398 366.443L340.336 385.022L326.992 371.679L319.592 349.47L314.876 335.324C312.97 329.614 311.999 323.634 312 317.614V317.614ZM419.435 402.033C418.616 404.895 417.236 407.565 415.376 409.888C413.516 412.211 411.212 414.142 408.6 415.567L277.944 468.931L272.952 443.968L384.782 377.082C384.895 377.015 385.005 376.945 385.113 376.873C388.977 374.297 393.54 372.971 398.183 373.074C402.827 373.177 407.326 374.706 411.072 377.452C414.818 380.197 417.629 384.028 419.125 388.425C420.621 392.822 420.729 397.573 419.435 402.033V402.033ZM328 237.7V214.017L334.111 216.006C337.605 217.839 340.671 220.391 343.109 223.493C345.546 226.595 347.3 230.178 348.255 234.006L368.239 313.942C368.741 315.952 370.003 317.688 371.76 318.786L435.76 358.786C436.759 359.411 437.884 359.807 439.055 359.946C440.225 360.085 441.412 359.964 442.53 359.591L464 352.433L478.771 357.356L473.9 381.712L421.556 365.355C414.128 359.475 404.785 356.554 395.331 357.155L363.318 347.155C361.522 346.59 359.859 345.671 358.425 344.451C356.992 343.232 355.817 341.737 354.972 340.055L327.988 286.087C332.353 278.773 334.658 270.414 334.66 261.895C334.663 253.377 332.361 245.017 328 237.7V237.7ZM288 128C288 136.487 284.628 144.627 278.627 150.628C272.626 156.629 264.487 160 256 160C247.513 160 239.374 156.629 233.372 150.628C227.371 144.627 224 136.487 224 128V97.8113C243.005 110.676 265.098 118.238 288 119.719V128ZM278.431 199.845L280 200.159V228L256 246L232 228V200.159L233.569 199.845C235.382 199.483 237.014 198.503 238.187 197.072C239.359 195.642 240 193.85 240 192V173.248C250.351 176.918 261.649 176.918 272 173.248V192C272 193.85 272.64 195.642 273.813 197.072C274.985 198.503 276.617 199.483 278.431 199.845V199.845ZM288 96.0003V103.692C266.565 102.119 246.025 94.4546 228.8 81.6003C228.473 81.3589 228.128 81.143 227.768 80.9543C231.123 74.6552 236.488 69.6587 243.01 66.7597C249.532 63.8606 256.835 63.2254 263.76 64.9551C270.684 66.6848 276.831 70.68 281.223 76.3054C285.616 81.9308 288.001 88.8633 288 96.0003V96.0003ZM208 96.0003V128C207.992 135.268 209.645 142.44 212.833 148.971C203.415 152.99 192.851 153.417 183.14 150.171C188.493 144.818 192.737 138.461 195.63 131.465C198.523 124.469 200.008 116.971 200 109.4V107.143C199.965 94.5111 202.437 81.9975 207.271 70.3269C212.105 58.6562 219.206 48.0603 228.163 39.1523C231.173 36.1417 234.917 33.9706 239.026 32.8547C243.134 31.7389 247.463 31.717 251.582 32.7913C255.701 33.8655 259.468 35.9986 262.508 38.9787C265.548 41.9588 267.756 45.6822 268.912 49.7793C261.78 47.7817 254.282 47.4625 247.006 48.8468C239.73 50.2311 232.874 53.2813 226.974 57.7584C221.074 62.2355 216.29 68.0178 212.999 74.6525C209.707 81.2872 207.996 88.5939 208 96.0003V96.0003ZM198.656 244.438C199.532 243.124 200 241.58 200 240V208.988L216 204.288V232C216 233.242 216.289 234.467 216.844 235.578C217.4 236.689 218.206 237.655 219.2 238.4L251.2 262.4C252.585 263.439 254.269 264 256 264C257.731 264 259.415 263.439 260.8 262.4L292.8 238.4C293.793 237.655 294.6 236.689 295.155 235.578C295.711 234.467 296 233.242 296 232V204.288L312 208.988V240C312 241.58 312.467 243.124 313.344 244.438C317.062 249.985 318.911 256.575 318.622 263.246C318.332 269.918 315.919 276.323 311.734 281.526L300.155 296H211.845L200.266 281.526C196.081 276.323 193.667 269.918 193.378 263.246C193.088 256.575 194.937 249.985 198.656 244.438V244.438ZM47.9998 352.433L69.4698 359.589C70.5879 359.962 71.7745 360.083 72.9448 359.944C74.1152 359.805 75.2403 359.409 76.2398 358.784L140.24 318.784C141.996 317.686 143.259 315.95 143.761 313.94L163.745 234C164.699 230.172 166.453 226.589 168.891 223.487C171.329 220.385 174.395 217.833 177.889 216L184 214.017V237.7C179.638 245.018 177.337 253.378 177.339 261.897C177.341 270.415 179.647 278.774 184.013 286.089L157.029 340.057C156.183 341.739 155.009 343.234 153.576 344.453C152.142 345.673 150.479 346.592 148.684 347.157L116.756 357.135C110.04 357.441 103.525 359.52 97.8748 363.162C97.4348 363.222 38.1008 381.714 38.1008 381.714L33.2288 357.358L47.9998 352.433Z" fill="#4F4F33"/>
<path d="M488 184.001H462.79C461.686 179.549 459.823 175.32 457.282 171.501L446.656 155.562C445.925 154.466 444.935 153.568 443.774 152.946C442.613 152.325 441.317 152 440 152C438.683 152 437.386 152.325 436.225 152.946C435.064 153.568 434.074 154.466 433.344 155.562L422.718 171.501C420.177 175.32 418.314 179.549 417.21 184.001H392C390.636 184.001 389.295 184.349 388.104 185.014C386.913 185.678 385.912 186.635 385.195 187.795C384.478 188.955 384.069 190.279 384.008 191.642C383.947 193.004 384.235 194.359 384.845 195.579L394.211 214.312C396.852 219.64 400.934 224.122 405.993 227.248C411.052 230.375 416.886 232.021 422.833 232.001H457.167C463.114 232.021 468.948 230.375 474.007 227.248C479.066 224.122 483.147 219.64 485.789 214.312L495.155 195.579C495.765 194.359 496.053 193.004 495.991 191.642C495.93 190.279 495.522 188.955 494.805 187.795C494.088 186.635 493.086 185.678 491.895 185.014C490.704 184.349 489.363 184.001 488 184.001V184.001ZM408.521 207.156L404.944 200.001H416.351C417.087 205.678 419.046 211.129 422.095 215.975C419.25 215.855 416.489 214.973 414.101 213.422C411.714 211.871 409.786 209.707 408.521 207.156V207.156ZM448 194.746C448.008 197.899 447.392 201.022 446.185 203.936C444.978 206.849 443.206 209.493 440.97 211.717L440 212.687L439.029 211.716C436.793 209.493 435.021 206.848 433.814 203.935C432.608 201.022 431.991 197.899 432 194.746V193.69C431.995 188.951 433.398 184.318 436.03 180.377L440 174.423L443.97 180.377C446.601 184.318 448.004 188.951 448 193.69V194.746ZM471.479 207.156C470.213 209.707 468.286 211.871 465.898 213.422C463.51 214.973 460.75 215.855 457.905 215.975C460.953 211.129 462.913 205.678 463.649 200.001H475.056L471.479 207.156Z" fill="#4F4F33"/>
<path d="M120 192.001H94.7897C93.6858 187.549 91.8225 183.32 89.2817 179.501L78.6557 163.563C77.9251 162.467 76.9354 161.569 75.7743 160.947C74.6132 160.326 73.3166 160.001 71.9997 160.001C70.6828 160.001 69.3863 160.326 68.2252 160.947C67.0641 161.569 66.0743 162.467 65.3437 163.563L54.7177 179.501C52.1769 183.32 50.3136 187.549 49.2097 192.001H23.9997C22.6361 192.001 21.2951 192.349 20.104 193.014C18.913 193.678 17.9115 194.635 17.1946 195.795C16.4778 196.955 16.0693 198.279 16.0081 199.642C15.9468 201.004 16.2348 202.359 16.8447 203.579L26.2107 222.312C28.8523 227.64 32.934 232.122 37.9929 235.248C43.0519 238.375 48.8856 240.021 54.8327 240.001H89.1667C95.1138 240.021 100.948 238.375 106.007 235.248C111.066 232.122 115.147 227.64 117.789 222.312L127.155 203.579C127.765 202.359 128.053 201.004 127.991 199.642C127.93 198.279 127.522 196.955 126.805 195.795C126.088 194.635 125.086 193.678 123.895 193.014C122.704 192.349 121.363 192.001 120 192.001V192.001ZM40.5207 215.156L36.9437 208.001H48.3507C49.0877 213.679 51.0493 219.129 54.0997 223.975C51.2539 223.856 48.4923 222.975 46.1036 221.423C43.7149 219.872 41.7867 217.707 40.5207 215.156V215.156ZM79.9997 202.746C80.0085 205.899 79.3916 209.022 78.1849 211.936C76.9782 214.849 75.2056 217.493 72.9697 219.717L71.9997 220.687L71.0287 219.716C68.7931 217.493 67.0207 214.848 65.8142 211.935C64.6076 209.022 63.9909 205.899 63.9997 202.746V201.69C63.9954 196.951 65.398 192.318 68.0297 188.377L71.9997 182.423L75.9697 188.377C78.6014 192.318 80.004 196.951 79.9997 201.69V202.746ZM103.479 215.156C102.213 217.707 100.286 219.871 97.898 221.422C95.5102 222.973 92.7497 223.855 89.9047 223.975C92.953 219.129 94.9128 213.678 95.6487 208.001H107.056L103.479 215.156Z" fill="#4F4F33"/>
</svg>
