<svg width="512" height="512" viewBox="0 0 512 512" fill="none" xmlns="http://www.w3.org/2000/svg">
<g clip-path="url(#clip0)">
<path d="M256 0C147.78 0 59.7329 92.638 59.7329 206.507C59.7329 318.097 242.201 501.735 249.967 509.509C251.631 511.164 253.816 512.001 256 512.001C258.185 512.001 260.369 511.165 262.033 509.501C269.798 501.736 452.267 318.098 452.267 206.508C452.267 92.638 364.22 0 256 0ZM256 491.247C224.094 458.155 76.7999 300.245 76.7999 206.507C76.7999 102.05 157.193 17.067 256 17.067C354.807 17.067 435.2 102.05 435.2 206.507C435.2 300.203 287.898 458.146 256 491.247Z" fill="#4F4F33"/>
<path d="M256 42.667C171.307 42.667 102.4 111.574 102.4 196.267C102.4 280.96 171.307 349.867 256 349.867C340.693 349.867 409.6 280.96 409.6 196.267C409.6 111.574 340.693 42.667 256 42.667ZM256 332.8C180.71 332.8 119.467 271.548 119.467 196.267C119.467 120.986 180.71 59.733 256 59.733C331.29 59.733 392.533 120.985 392.533 196.266C392.533 271.547 331.29 332.8 256 332.8Z" fill="#4F4F33"/>
<path d="M256 418.133C251.29 418.133 247.467 421.956 247.467 426.666V503.466C247.467 508.176 251.29 511.999 256 511.999C260.71 511.999 264.533 508.176 264.533 503.466V426.666C264.533 421.956 260.71 418.133 256 418.133Z" fill="#4F4F33"/>
<path d="M273.067 136.533H238.934C234.224 136.533 230.401 140.356 230.401 145.066V179.2C230.401 183.91 234.224 187.733 238.934 187.733H273.067C287.181 187.733 298.667 176.247 298.667 162.133C298.667 148.019 287.181 136.533 273.067 136.533ZM273.067 170.667H247.467V153.6H273.067C277.777 153.6 281.6 157.431 281.6 162.133C281.6 166.835 277.777 170.667 273.067 170.667Z" fill="#4F4F33"/>
<path d="M273.067 102.4H204.8C200.09 102.4 196.267 106.223 196.267 110.933V281.6C196.267 286.31 200.09 290.133 204.8 290.133H238.933C243.643 290.133 247.466 286.31 247.466 281.6V221.867H273.066C306.005 221.867 332.799 195.072 332.799 162.134C332.799 129.196 306.005 102.4 273.067 102.4ZM273.067 204.8H238.934C234.224 204.8 230.401 208.623 230.401 213.333V273.066H213.334V119.466H273.067C296.593 119.466 315.734 138.606 315.734 162.133C315.733 185.66 296.593 204.8 273.067 204.8Z" fill="#4F4F33"/>
<path d="M503.467 494.933H469.334C464.624 494.933 460.801 498.756 460.801 503.466C460.801 508.176 464.624 511.999 469.334 511.999H503.467C508.177 511.999 512 508.176 512 503.466C512 498.756 508.177 494.933 503.467 494.933Z" fill="#4F4F33"/>
<path d="M204.8 494.933H8.533C3.823 494.933 0 498.756 0 503.466C0 508.176 3.823 512 8.533 512H204.8C209.51 512 213.333 508.177 213.333 503.467C213.333 498.757 209.51 494.933 204.8 494.933Z" fill="#4F4F33"/>
<path d="M409.6 494.933H307.2C302.49 494.933 298.667 498.756 298.667 503.466C298.667 508.176 302.49 512 307.2 512H409.6C414.31 512 418.133 508.177 418.133 503.467C418.133 498.757 414.31 494.933 409.6 494.933Z" fill="#4F4F33"/>
</g>
<defs>
<clipPath id="clip0">
<rect width="512" height="512" fill="white"/>
</clipPath>
</defs>
</svg>
