<svg id="Calque_1" data-name="Calque 1" xmlns="http://www.w3.org/2000/svg" viewBox="0 0 762.6 762.6"><defs><style>.cls-1{fill:#2a2a2a;}</style></defs><title>i</title><path class="cls-1" d="M263.28,410h7.3A196.66,196.66,0,0,1,364,433.75c16.37,8.82,31.86,19.38,47.22,29.94,29.21,20.09,60.53,34.21,96.37,36.66,4.7.32,9.38.53,14.12.53a131.12,131.12,0,0,0,21.8-1.72L417.89,275.45c2.39-.64,4.1-1.18,5.84-1.54q19.82-4.08,39.64-8.1c27.57-5.64,55.26-10.73,82.67-17.09,24.69-5.73,39.36-29.82,34.16-53.09-3.94-17.62-21.7-35.56-44.47-35.56v16c14.64,0,26.38,12,28.85,23,3.38,15.14-6.56,30.4-22.16,34-18.9,4.39-38.39,8.25-57.24,12-8.19,1.63-16.67,3.31-25,5l-14.83,3q-12.42,2.53-24.83,5.08c-1.7.35-3.22.78-4.7,1.19l-2,.55-20,5.3,10.11,18,84.82,151,28.35,50.49c-2.63-.08-5.41-.22-8.42-.42-29.64-2-57.73-12.79-88.4-33.88-13.78-9.47-30.92-21.26-48.69-30.84a213.12,213.12,0,0,0-54-20.34l15.77-7.9,35.76-17.91L384,366.06l-8-14.57-2.47-4.5c-1.8-3.3-3.51-6.41-5.29-9.6l-.6-1.07c-16-28.51-32.46-58-48.72-87-3.8-6.77-4.38-13.86-1.63-19.94,2.68-5.93,8.19-10.06,15.52-11.63,24.85-5.32,50.18-10.55,74.68-15.6l15.61-3.22c11-2.28,22.32-4.52,33.22-6.69,23.86-4.74,48.54-9.64,72.74-15.37a29.15,29.15,0,0,1,6.69-.8v-16h0a45,45,0,0,0-10.38,1.23c-34.95,8.27-70.33,14.69-105.52,22-30.15,6.23-60.3,12.4-90.4,18.85-25.93,5.56-37.51,31.86-24.5,55q24.69,44,49.32,88c2.56,4.58,5.06,9.2,7.7,14l-99.12,49.66Z"/><path class="cls-1" d="M692.39,474c-6.43-6.66-14.25-10.09-22-10.09a27.61,27.61,0,0,0-19.08,7.93C638,484.39,622.88,494.44,606.83,503c-29.31,15.55-58.74,23.59-88.15,23.59-28.6,0-57.19-7.6-85.65-23.3-18.33-10.1-35.09-23-52.89-34.11-35.35-22-71.82-33.63-109.38-33.63-24.83,0-50.14,5.07-75.9,15.54-50.8,20.65-91.07,55-124.91,97.74-12.84,16.2-.21,42,17,46.21a31.36,31.36,0,0,0,7.44.93c10.19,0,18.24-5.55,25-13.61,22.42-26.59,47.44-50,78.26-66.72,23.06-12.49,47-20.06,72.35-20.06a129.14,129.14,0,0,1,24.42,2.35c24.86,4.78,47.1,15.62,67.1,30.79,27.06,20.52,56.47,36.47,88.7,47A212.8,212.8,0,0,0,516.77,586h2.7c37.57,0,72.93-9.27,106.64-25.59,24.6-11.91,47.6-26.18,66.89-45.77C704.73,502.75,704.3,486.3,692.39,474ZM681.6,503.43c-15.84,16.1-35.69,29.63-62.46,42.6-33.34,16.14-65.94,24-99.66,24h-2.7a197.66,197.66,0,0,1-61.55-9.55,286.64,286.64,0,0,1-84-44.55c-23-17.41-47.77-28.77-73.75-33.76A145.82,145.82,0,0,0,270,479.54c-26.5,0-52.66,7.19-80,22-29.45,16-55.79,38.35-82.87,70.47-6.68,7.92-11.13,7.92-12.8,7.92a15.57,15.57,0,0,1-3.66-.48c-3-.73-7.23-4.55-9.17-10.19-.84-2.44-1.84-7.06.91-10.53,35.2-44.41,73.93-74.78,118.4-92.85,23.45-9.53,47-14.36,69.88-14.36,33.74,0,67.7,10.5,100.92,31.21,6.75,4.21,13.28,8.65,20.2,13.34,10.66,7.24,21.68,14.72,33.43,21.2,30.43,16.78,61.85,25.28,93.38,25.28s63.81-8.56,95.65-25.45c18.91-10,34.6-21,48-33.65a11.72,11.72,0,0,1,8.1-3.57c3.52,0,7.24,1.85,10.48,5.2C684.35,488.67,689.07,495.85,681.6,503.43Z"/><path class="cls-1" d="M497.13,372.43c2.12,45,39.18,85.1,90.62,85.38h.49a91.09,91.09,0,0,0,.09-182.18l-2,0C543.27,275.6,494.24,311.07,497.13,372.43Zm89.15-80.83,1.63,0h.4a75.09,75.09,0,0,1-.07,150.18h-.41a75.13,75.13,0,0,1-52.67-21.34,73.17,73.17,0,0,1-22-48.79c-1.32-28.12,10.19-46.38,20.08-56.75C547.13,300.32,567,291.6,586.28,291.6Z"/></svg>