<svg width="513" height="513" viewBox="0 0 513 513" fill="none" xmlns="http://www.w3.org/2000/svg">
<g clip-path="url(#clip0)">
<path d="M494.133 218.394C489.804 206.218 476.096 172.209 447.654 137.862C427.178 113.135 403.292 93.4191 376.657 79.2601C355.108 67.8051 331.738 60.0281 306.851 55.9481C304.767 34.5941 286.716 17.8491 264.824 17.8491C242.939 17.8491 224.892 34.5841 222.799 55.9281C199.826 59.6931 178.149 66.6221 158.019 76.6701C131.979 89.6681 108.421 107.903 87.999 130.869C81.566 138.103 92.771 148.075 99.207 140.838C134.922 100.674 179.176 76.8871 231.08 69.8271C231.118 69.8221 231.155 69.8231 231.193 69.8171C277.942 63.4301 327.395 70.1481 369.318 92.3461C394.18 105.51 416.53 123.899 435.748 147.003C459.04 175.004 472.104 203.334 477.814 217.708H51.83C56.388 206.219 65.635 185.827 81.023 163.868C86.547 155.986 74.33 147.282 68.741 155.258C49.163 183.194 39.11 208.31 35.518 218.393C25.269 220.919 17.645 230.184 17.645 241.201C17.645 254.155 28.184 264.693 41.138 264.693H154.399L88.84 349.031H7.5C3.358 349.031 0 352.389 0 356.531C0 356.531 0 486.085 0 486.651C0 488.834 0.996 490.839 2.548 492.226C3.881 493.418 5.625 494.153 7.5 494.153C7.793 494.153 8.087 494.136 8.381 494.101L93.391 484.049C97.166 483.603 100.01 480.402 100.01 476.601V448.742L278.092 404.753C283.576 403.741 288.56 401.134 292.522 397.203C292.616 397.11 292.707 397.015 292.796 396.917L383.63 296.738C392.235 288.066 393.895 275.046 388.591 264.693H488.509C501.463 264.693 512.002 254.154 512.002 241.201C512.002 230.185 504.379 220.921 494.133 218.394ZM288.887 53.6661C278.572 52.7401 268.207 52.4091 257.854 52.6721C252.426 52.8081 247.007 53.1281 241.597 53.5931C240.499 53.6881 239.395 53.7701 238.304 53.8781C241.118 41.8401 251.94 32.8491 264.823 32.8491C277.706 32.8491 288.528 41.8401 291.342 53.8781C290.529 53.7971 289.705 53.7391 288.887 53.6661ZM85.009 469.936L15 478.214V364.031H85.009V469.936ZM372.912 286.243C372.819 286.336 372.727 286.431 372.639 286.528L281.831 386.678C280.012 388.435 277.736 389.591 275.239 390.026C275.067 390.056 274.897 390.092 274.728 390.133L100.009 433.291V359.103C100.009 359.103 170.655 268.22 170.724 268.131C174.839 262.841 184.018 264.143 188.258 268.354C192.613 272.68 193.232 279.465 189.731 284.487C189.034 285.487 150.492 344.709 150.446 344.781C147.241 349.705 150.937 356.337 156.755 356.337H263.404C265.383 356.337 267.282 355.555 268.687 354.161C268.687 354.161 355.061 268.446 355.156 268.351C360.04 263.504 368.139 263.54 372.98 268.419C377.875 273.352 377.844 281.348 372.912 286.243ZM203.919 264.693H247.516L170.863 340.761C170.863 340.761 201.319 294.095 202.036 293.066C208.017 284.487 208.496 273.578 203.919 264.693ZM215.298 341.337H191.578L265.126 268.351C267.502 265.993 270.654 264.694 274.003 264.694C278.774 264.694 283.29 267.518 285.35 271.82L215.298 341.337ZM310.14 268.351C312.517 265.993 315.669 264.694 319.017 264.694C323.81 264.694 328.295 267.5 330.365 271.82L260.313 341.338H236.593L310.14 268.351ZM488.507 249.693H41.138C36.455 249.693 32.645 245.884 32.645 241.201C32.645 236.518 36.455 232.709 41.138 232.709H488.507C493.19 232.709 497 236.519 497 241.201C497 245.883 493.19 249.693 488.507 249.693Z" fill="#4F4F33"/>
</g>
<defs>
<clipPath id="clip0">
<rect width="512.002" height="512.002" fill="white"/>
</clipPath>
</defs>
</svg>
