<svg width="512" height="512" viewBox="0 0 512 512" fill="none" xmlns="http://www.w3.org/2000/svg">
<path d="M505.316 6.671C505.291 6.647 505.264 6.626 505.24 6.602C501.005 2.405 495.169 0 489.212 0H489.182C484.033 0 478.993 1.77 474.993 4.979C420.544 48.469 365.894 93.359 312.555 138.399C299.585 149.35 286.604 160.387 273.635 171.485L125.557 23.409C110.935 8.789 87.145 8.791 72.524 23.409L2.19699 93.737C-0.732006 96.667 -0.732006 101.415 2.19699 104.344C5.12599 107.272 9.87499 107.272 12.803 104.344L61.918 55.23L72.651 65.963L23.537 115.077C20.608 118.007 20.608 122.755 23.537 125.684C25.001 127.148 26.921 127.88 28.84 127.88C30.759 127.88 32.679 127.148 34.143 125.684L83.258 76.57L93.991 87.303L44.876 136.417C41.947 139.347 41.947 144.095 44.876 147.024C46.34 148.488 48.26 149.22 50.179 149.22C52.098 149.22 54.018 148.488 55.482 147.024L104.597 97.909L115.33 108.642L66.216 157.756C63.287 160.686 63.287 165.434 66.216 168.363C67.68 169.827 69.6 170.559 71.519 170.559C73.438 170.559 75.358 169.827 76.822 168.363L125.936 119.249L136.669 129.982L87.555 179.096C84.626 182.026 84.626 186.774 87.555 189.703C89.019 191.167 90.939 191.899 92.858 191.899C94.777 191.899 96.697 191.167 98.161 189.703L147.275 140.589L158.008 151.322L108.894 200.436C105.965 203.366 105.965 208.114 108.894 211.043C110.358 212.507 112.278 213.239 114.197 213.239C116.116 213.239 118.036 212.507 119.5 211.043L168.614 161.929L179.347 172.662L130.233 221.776C127.304 224.706 127.304 229.454 130.233 232.383C131.697 233.847 133.617 234.579 135.536 234.579C137.455 234.579 139.375 233.847 140.839 232.383L189.953 183.269L200.687 194.003L151.573 243.117C148.644 246.047 148.644 250.795 151.573 253.724C153.037 255.188 154.957 255.92 156.876 255.92C158.795 255.92 160.715 255.188 162.179 253.724L211.294 204.609L222.405 215.72C199.376 235.775 176.466 255.949 153.814 276.148C153.804 276.148 153.804 276.148 153.804 276.159C147.075 282.144 139.735 289.038 132.494 295.568C128.058 298.777 128.903 304.418 131.104 306.619C131.104 306.619 131.104 306.629 131.114 306.629C138.334 315.369 142.324 326.529 142.324 338.068C142.324 351.558 137.134 364.178 127.705 373.598C127.61 373.693 105.183 396.121 105.085 396.218C72.47 429.593 15.033 406.818 15 359.55C15.02 330.853 38.197 307.151 67.479 307.13C83.428 307.14 98.318 314.24 108.328 326.59C111.043 329.936 116.028 330.298 119.188 327.43C119.228 327.4 119.258 327.37 119.298 327.33L119.368 327.269C122.881 324.111 122.633 318.42 118.708 315.609C105.888 300.689 87.238 292.13 67.529 292.13H67.429C29.931 292.13 -0.043006 322.665 0.00099404 359.55C-0.032006 387.344 16.953 411.894 42.08 422.1C57 428.142 73.344 428.558 88.108 423.825C74.036 467.601 106.787 512 152.307 512H152.387C189.583 512 219.897 481.888 219.856 444.54C219.876 426.79 213.036 410.04 200.626 397.359C200.633 397.351 215.94 379.95 215.94 379.95C242.96 349.883 269.687 319.679 296.09 289.402L307.39 300.702L258.276 349.816C255.347 352.746 255.347 357.494 258.276 360.423C259.741 361.887 261.661 362.619 263.58 362.619C265.499 362.619 267.419 361.887 268.884 360.423L317.998 311.309L328.731 322.042L279.617 371.156C276.688 374.086 276.688 378.834 279.617 381.763C281.082 383.227 283.002 383.959 284.921 383.959C286.84 383.959 288.76 383.227 290.225 381.763L339.339 332.649L350.071 343.381L300.957 392.495C298.028 395.425 298.028 400.173 300.957 403.102C302.422 404.566 304.342 405.298 306.261 405.298C308.18 405.298 310.1 404.566 311.565 403.102L360.679 353.988L371.411 364.72L322.297 413.835C319.368 416.765 319.368 421.513 322.297 424.442C323.762 425.906 325.682 426.638 327.601 426.638C329.52 426.638 331.44 425.906 332.905 424.442L382.019 375.327L392.752 386.06L343.638 435.174C340.709 438.104 340.709 442.852 343.638 445.781C345.103 447.245 347.023 447.977 348.942 447.977C350.861 447.977 352.781 447.245 354.246 445.781L403.36 396.667L414.092 407.399L364.978 456.513C362.049 459.443 362.049 464.191 364.978 467.12C366.443 468.584 368.363 469.316 370.282 469.316C372.201 469.316 374.121 468.584 375.586 467.12L424.7 418.006L435.432 428.738L386.318 477.852C383.389 480.782 383.389 485.53 386.318 488.459C387.783 489.923 389.703 490.655 391.622 490.655C393.541 490.655 395.461 489.923 396.926 488.459L446.04 439.345L456.772 450.077L407.658 499.191C404.729 502.121 404.729 506.869 407.658 509.798C409.123 511.262 411.043 511.994 412.962 511.994C414.881 511.994 416.801 511.262 418.266 509.798L472.676 455.387C472.678 455.385 472.681 455.382 472.684 455.38C472.687 455.378 472.689 455.375 472.691 455.372L488.593 439.47C495.676 432.387 499.577 422.97 499.577 412.953C499.577 402.936 495.676 393.519 488.594 386.436L340.352 238.205C397.856 171.123 453.602 103.838 507.015 36.99C514.263 27.919 513.531 14.885 505.316 6.671ZM72.525 44.623L83.131 34.017C91.903 25.245 106.178 25.245 114.951 34.017L262.219 181.286C252.718 189.448 243.225 197.632 233.751 205.851L72.525 44.623ZM477.984 397.05C482.234 401.299 484.575 406.949 484.575 412.959C484.575 418.969 482.234 424.619 477.984 428.868L467.378 439.474C462.422 434.52 316.603 288.7 305.962 278.06C314.192 268.587 322.394 259.108 330.556 249.623L477.984 397.05ZM208.956 365.264C205.321 362.481 195.629 357.663 194.017 343.979C193.567 340.2 190.377 337.359 186.587 337.359C182.056 337.359 178.603 341.294 179.117 345.74C179.127 345.74 179.127 345.74 179.127 345.74C180.557 357.969 187.197 368.78 197.337 375.389C197.867 375.74 198.397 376.099 198.947 376.499C193.745 382.434 189.451 387.431 184.527 392.869C183.157 394.389 182.457 396.438 182.617 398.478C182.767 400.518 183.777 402.438 185.367 403.728C197.954 414.003 204.845 428.791 204.857 444.539C204.836 473.443 181.551 496.979 152.358 496.999C123.504 496.961 99.859 473.706 99.859 444.539C99.893 420.802 114.906 408.09 116.059 406.459L138.309 384.209C150.567 371.951 157.328 355.367 157.328 338.068C157.338 325.428 153.718 313.218 146.879 302.779C152.751 297.409 157.858 292.644 163.789 287.358L163.819 287.318C326.433 142.326 482.44 17.689 485.372 16.01C483.361 18.021 190.737 310.519 189.387 312.04C186.637 315.14 186.927 319.89 190.017 322.63C193.123 325.396 197.88 325.072 200.607 322C201.504 320.978 493.836 28.753 495.979 26.61C495.366 27.689 374.581 180.679 208.956 365.264Z" fill="#4F4F33"/>
<path d="M94.0261 333.076C70.3691 309.42 30.0041 326.466 30.0061 359.587C30.0061 369.598 33.9091 379.013 40.9961 386.099C48.3071 393.409 57.9071 397.062 67.5111 397.062C77.1121 397.062 86.7161 393.407 94.0261 386.099C108.663 371.465 108.665 347.711 94.0261 333.076ZM83.4211 375.491C74.6481 384.26 60.3741 384.262 51.6011 375.491C37.5511 361.442 47.3891 337.104 67.5111 337.104C87.6911 337.105 97.4071 361.507 83.4211 375.491Z" fill="#43432B"/>
<path d="M152.361 407.051C136.94 407.051 123.693 415.905 117.789 430.159C111.856 444.483 114.944 460.154 125.847 471.055C133.089 478.295 142.418 482.091 152.052 482.091C156.919 482.091 161.865 481.121 166.655 479.137C180.968 473.207 189.86 459.951 189.86 444.542C189.859 423.87 173.038 407.051 152.361 407.051ZM160.913 465.28C154.203 468.058 144.254 468.249 136.451 460.448C128.644 452.642 128.851 442.649 131.646 435.899C134.419 429.204 141.317 422.05 152.36 422.05C164.766 422.05 174.859 432.14 174.859 444.542C174.859 455.572 167.655 462.487 160.913 465.28Z" fill="#43432B"/>
</svg>
