<svg width="428" height="430" viewBox="0 0 428 430" fill="none" xmlns="http://www.w3.org/2000/svg">
<path d="M279.89 21.3096C284.44 22.5396 289.14 23.3996 293.52 25.0796C307.22 30.3396 318.11 39.5196 322.95 53.2696C329.85 72.8796 335.55 92.9796 340.58 113.16C343.78 125.99 340.48 138.57 333.35 149.72C324.47 163.61 315.18 177.23 306.01 190.93C303.73 194.34 300.25 195.15 297.31 193.2C294.37 191.25 293.79 187.71 296.06 184.29C304.46 171.58 312.86 158.86 321.41 146.29C329.52 134.34 331.51 121.61 327.29 107.77C322.89 93.3296 318.82 78.7696 314.47 64.3396C308.68 45.0896 292.97 33.4196 272.93 33.3396C266.48 33.3396 260.03 33.3396 252.67 33.3396C254.17 34.5896 254.97 35.2696 255.79 35.9296C267.369 45.0322 275.602 57.7176 279.2 71.9996C282.48 84.8096 285.6 97.6696 288.89 110.48C291.3 119.85 289.79 128.42 284.6 136.61C262.093 172.203 239.647 207.806 217.26 243.42C214.13 248.42 211.99 253.89 207.98 258.42C204.98 261.74 202.12 263.11 199.04 261.15C195.96 259.19 195.3 255.63 197.81 251.99C199.49 249.56 198.5 248.36 196.81 246.7C165.923 215.553 135.067 184.376 104.24 153.17C92.4101 141.17 87.0901 126.77 88.4801 109.95C88.8401 105.56 91.4301 102.95 94.9301 103.27C98.4301 103.59 100.75 106.59 100.42 110.84C99.4201 123.95 103.42 135.26 112.63 144.58C143.097 175.446 173.603 206.266 204.15 237.04C204.67 237.56 205.26 238.04 206.03 238.7C211.23 230.46 216.42 222.39 221.34 214.17C221.82 213.37 221.07 211.17 220.21 210.31C211.38 201.31 202.42 192.4 193.49 183.47C178.55 168.54 163.69 153.53 148.65 138.7C139.55 129.7 136.58 119.23 139.73 106.88C142.543 95.8796 145.3 84.8796 148 73.8796C151.807 57.69 161.353 43.4291 174.87 33.7396C173.804 33.5708 172.729 33.4607 171.65 33.4096C163.54 33.5796 155.31 32.9696 147.35 34.1596C130.88 36.6096 119.88 46.3596 114.06 61.9396C113.71 62.8696 113.49 63.8596 113.12 64.7796C111.76 68.1696 108.87 69.6996 105.67 68.7796C102.47 67.8596 100.67 64.6596 101.75 61.0296C104.972 49.2285 112.153 38.8941 122.09 31.7596C129.066 26.604 137.207 23.2513 145.79 21.9996C146.506 21.8388 147.208 21.6215 147.89 21.3496L279.89 21.3096ZM228.68 202.87C244.86 177.16 260.23 152.76 275.56 128.34C278.37 123.86 278.66 118.95 277.38 113.89C274.19 101.19 271.1 88.4596 267.83 75.7796C261.38 50.7796 239.98 33.7196 214.83 33.3496C189.36 32.9696 167.46 49.3496 160.44 74.3496C157.2 85.8796 154.69 97.5996 151.56 109.16C149.27 117.6 151.24 124.38 157.5 130.56C180.43 153.22 203.15 176.09 225.92 198.91C226.945 200.153 227.868 201.477 228.68 202.87Z" fill="#4F4F33"/>
<path d="M405.89 340.06C403.89 347.39 402.42 354.87 399.89 362.01C392.1 384.07 377.49 398.83 353.89 403.55C340.72 406.19 327.59 405.55 314.4 403.49C310.997 402.959 307.533 402.959 304.13 403.49C289.81 405.77 275.54 406.29 261.36 402.74C239.23 397.2 226.02 382.29 218.52 361.52C214.621 350.434 212.384 338.832 211.88 327.09C211.63 322.41 213.22 320.09 218.03 319.25C227.23 317.69 236.5 316.51 245.75 315.17C248.18 308.17 250.75 300.64 253.41 293.17C254.032 291.538 254.754 289.945 255.57 288.4C257.19 285.14 259.8 283.85 263.3 285C271.45 287.65 279.58 290.4 287.3 293C293.12 287.43 298.97 281.64 305.04 276.1C309.42 272.1 311.55 272.1 316.04 276.26C321.82 281.56 327.36 287.12 332.82 292.39C340.04 290.01 347.32 287.48 354.69 285.23C359.41 283.79 361.76 284.81 363.57 289.46C366.543 297.114 369.25 304.87 371.69 312.73C372.45 315.16 373.22 315.94 375.84 316.17C384.03 316.89 392.19 317.98 400.31 319.25C402.25 319.55 403.99 321.09 405.83 322.07L405.89 340.06ZM310.48 388.16C318.444 381.134 325.304 372.949 330.83 363.88C341.56 345.96 341.23 328.2 330.27 310.51C324.866 301.802 318.181 293.958 310.44 287.24C300.64 296.08 292.44 305.76 286.96 317.47C280.533 331.077 280.597 344.674 287.15 358.26C292.7 369.83 300.8 379.38 310.48 388.17V388.16ZM334.67 392.67L335.02 393.51C339.02 393.19 343.02 393.04 346.92 392.51C360.44 390.76 372.1 385.51 380.27 374.08C389.56 361.08 392.96 346.16 394.65 329.92L374.22 327.7C376.84 359.51 361.1 379.4 334.67 392.68V392.67ZM244.41 327.67L224.11 329.9C225.97 347.41 229.57 363.49 240.69 376.76C251.81 390.03 267.23 393.04 283.69 392.92C271.8 386.27 260.91 378.56 253.31 367C245.56 355.3 243.54 342.2 244.41 327.72V327.67ZM285.61 379.34C277.82 368.13 271.67 356.27 270.36 342.47C269.03 328.47 273.6 315.78 280.72 303.47L264.47 297.47C263.01 301.47 261.55 304.83 260.62 308.3C259.2 313.59 257.86 318.92 256.97 324.3C253 348.71 263.32 368.72 285.61 379.39V379.34ZM337.06 377.01C350.83 368.82 360.33 357.7 362.16 341.35C363.119 332.158 362.27 322.867 359.66 314C358.11 308.56 356.27 303.21 354.43 297.42L339.66 302.95C355.83 328.63 353.66 353.08 337.06 377.06V377.01Z" fill="#4F4F33"/>
<path d="M33.91 315.31C33.91 319.68 33.78 323.55 33.91 327.4C34.06 330.93 36.35 333.04 39.91 333.29C41.03 333.37 42.16 333.29 43.28 333.29H192.23C199.01 333.29 201.93 335.14 201.86 339.38C201.79 343.62 199.01 345.29 192.41 345.29H55.54C50.42 345.29 45.29 345.35 40.17 345.29C29.66 345.15 22 337.49 21.91 327C21.8233 315.5 21.8233 304 21.91 292.5C21.98 281.95 29.62 274.12 40.08 274.11C107.58 274.057 175.077 274.057 242.57 274.11C247.19 274.11 249.98 276.54 249.86 280.28C249.74 284.02 247 286.09 242.2 286.09H43.46C35.28 286.09 33.9 287.47 33.9 295.65C33.9 298.02 33.9 300.39 33.9 303.34H121.22C122.468 303.251 123.722 303.298 124.96 303.48C127.96 304.16 129.8 306.14 129.83 309.28C129.86 312.42 128 314.4 125 315.14C123.767 315.341 122.515 315.395 121.27 315.3H33.91V315.31Z" fill="#4F4F33"/>
<path d="M122.88 393.31C134.02 393.31 144.5 393.38 154.98 393.2C156.11 393.2 157.54 391.9 158.27 390.83C165.003 380.917 171.67 370.95 178.27 360.93C180.02 358.28 182.22 356.7 185.47 357.5C189.61 358.5 191.14 363.13 188.55 367.12C183.65 374.66 178.55 382.12 173.62 389.58C172.94 390.58 172.33 391.65 171.42 393.11C172.98 393.19 174.16 393.3 175.33 393.3C189.57 393.3 203.82 393.3 218.06 393.35C219.75 393.35 222.06 393.4 222.98 394.42C224.41 395.98 225.87 398.58 225.52 400.42C225.17 402.26 222.71 403.77 220.95 405.14C220.31 405.64 219.01 405.33 218.01 405.33C174.78 405.33 131.54 405.41 88.31 405.33C63.61 405.27 42.68 389.5 36.08 366.33C34.82 361.89 36.25 358.61 39.9 357.59C43.27 356.65 46.12 358.65 47.52 362.93C53.85 382.28 69.07 393.34 89.46 393.38C94.96 393.38 100.46 393.54 105.95 393.28C106.735 393.192 107.495 392.945 108.182 392.555C108.87 392.165 109.471 391.639 109.95 391.01C115.95 381.81 121.75 372.47 127.61 363.18C128.21 362.18 128.77 361.25 129.43 360.35C131.62 357.35 134.77 356.58 137.61 358.27C140.45 359.96 141.46 363.54 139.48 366.77C134.92 374.23 130.19 381.58 125.54 388.97C124.77 390.14 124 391.42 122.88 393.31Z" fill="#4F4F33"/>
<path d="M393.89 196.46C393.89 229.067 393.89 261.677 393.89 294.29C393.966 295.537 393.933 296.789 393.79 298.03C393.21 301.26 391.22 303.22 387.91 303.24C384.6 303.26 382.58 301.31 382 298.08C381.847 296.716 381.813 295.34 381.9 293.97C381.9 229.623 381.9 165.29 381.9 100.97C381.9 79.8202 369.14 63.1902 349.31 58.5002C346.502 57.9151 343.654 57.5474 340.79 57.4002C336.43 57.0602 333.79 54.7302 333.94 51.1102C334.09 47.4902 336.78 45.3602 341.27 45.3702C366.27 45.4302 389.59 65.6402 393.12 90.4702C393.624 94.0548 393.878 97.6702 393.88 101.29C393.92 133.003 393.923 164.727 393.89 196.46Z" fill="#4F4F33"/>
<path d="M33.89 175.49C33.89 150.63 33.89 125.77 33.89 100.91C33.89 71.7398 53.12 49.6598 82 45.6398C83.9873 45.3647 85.9959 45.2743 88 45.3698C89.5114 45.3809 90.9612 45.9707 92.0511 47.0178C93.1411 48.065 93.7884 49.49 93.86 50.9998C94.02 54.2298 91.64 56.7598 88.16 57.2698C83.73 57.9198 79.16 58.1298 74.94 59.4898C56.94 65.2898 45.94 81.0498 45.94 100.49C45.9066 151.21 45.9066 201.93 45.94 252.65C46.0252 254.02 45.9918 255.395 45.84 256.76C45.22 260 43.21 262 39.9 262C36.59 262 34.58 260 34 256.81C33.856 255.569 33.8225 254.317 33.9 253.07C33.8933 227.21 33.89 201.35 33.89 175.49Z" fill="#4F4F33"/>
<path d="M255.32 262.84C253.46 261.45 250.98 260.54 250.46 258.98C249.742 256.707 249.936 254.244 251 252.11C255.53 244.66 260.55 237.52 265.4 230.27C266.65 228.41 267.81 226.48 269.17 224.7C270.076 223.415 271.45 222.537 272.996 222.255C274.543 221.972 276.139 222.308 277.44 223.19C278.073 223.6 278.619 224.132 279.045 224.754C279.472 225.376 279.771 226.076 279.925 226.814C280.079 227.553 280.086 228.314 279.944 229.055C279.803 229.796 279.516 230.501 279.1 231.13C272.933 240.644 266.643 250.077 260.23 259.43C259.28 260.81 257.32 261.49 255.32 262.84Z" fill="#4F4F33"/>
<path d="M148 303.34C149.191 303.34 150.356 303.695 151.345 304.359C152.334 305.023 153.102 305.967 153.553 307.07C154.004 308.173 154.116 309.385 153.875 310.551C153.635 311.718 153.052 312.787 152.202 313.622C151.352 314.456 150.273 315.019 149.102 315.238C147.931 315.457 146.721 315.322 145.627 314.851C144.532 314.38 143.603 313.594 142.957 312.593C142.311 311.592 141.978 310.421 142 309.23C142.029 307.658 142.674 306.16 143.796 305.058C144.918 303.957 146.428 303.34 148 303.34Z" fill="#4F4F33"/>
<path d="M171.6 315.28C170.413 315.227 169.268 314.823 168.311 314.119C167.354 313.414 166.628 312.442 166.224 311.324C165.821 310.206 165.758 308.994 166.044 307.841C166.331 306.688 166.953 305.645 167.832 304.846C168.711 304.047 169.808 303.527 170.983 303.352C172.159 303.177 173.359 303.354 174.433 303.862C175.508 304.371 176.407 305.186 177.017 306.206C177.627 307.226 177.92 308.403 177.86 309.59C177.764 311.168 177.056 312.645 175.887 313.708C174.718 314.771 173.179 315.335 171.6 315.28V315.28Z" fill="#4F4F33"/>
<path d="M201.86 309.21C201.888 310.399 201.561 311.569 200.923 312.572C200.284 313.575 199.362 314.366 198.273 314.844C197.184 315.322 195.977 315.465 194.807 315.256C193.636 315.047 192.554 314.495 191.698 313.67C190.842 312.844 190.25 311.783 189.998 310.621C189.746 309.459 189.845 308.248 190.282 307.143C190.72 306.037 191.476 305.086 192.455 304.411C193.433 303.735 194.591 303.366 195.78 303.35C197.361 303.329 198.887 303.932 200.025 305.03C201.164 306.127 201.823 307.629 201.86 309.21V309.21Z" fill="#4F4F33"/>
<path d="M293.34 208C293.357 209.568 292.759 211.08 291.675 212.212C290.591 213.345 289.107 214.008 287.54 214.06C285.979 214.102 284.463 213.533 283.314 212.474C282.166 211.415 281.475 209.95 281.39 208.39C281.352 207.579 281.479 206.769 281.764 206.008C282.048 205.248 282.484 204.553 283.045 203.966C283.606 203.378 284.281 202.911 285.027 202.592C285.774 202.273 286.578 202.109 287.39 202.11C288.945 202.15 290.427 202.782 291.532 203.876C292.638 204.971 293.285 206.446 293.34 208Z" fill="#4F4F33"/>
<path d="M106.6 86.1804C106.419 87.66 105.695 89.0196 104.567 89.9941C103.439 90.9687 101.989 91.4885 100.498 91.4523C99.0082 91.4161 97.5848 90.8265 96.5055 89.7984C95.4262 88.7702 94.7683 87.3771 94.6599 85.8904C94.5991 85.0556 94.7135 84.2174 94.9959 83.4295C95.2784 82.6416 95.7225 81.9216 96.2998 81.3156C96.8771 80.7096 97.5748 80.2311 98.348 79.9108C99.1213 79.5905 99.953 79.4355 100.79 79.4559C101.626 79.4762 102.45 79.6713 103.206 80.0288C103.963 80.3862 104.637 80.898 105.184 81.5313C105.731 82.1647 106.14 82.9054 106.384 83.7061C106.628 84.5068 106.701 85.3496 106.6 86.1804V86.1804Z" fill="#4F4F33"/>
</svg>
