<svg width="512" height="512" viewBox="0 0 512 512" fill="none" xmlns="http://www.w3.org/2000/svg">
<g clip-path="url(#clip0)">
<path d="M375.981 213.187C378.631 209.994 378.191 205.259 374.998 202.609C371.806 199.96 367.07 200.399 364.42 203.591L335.016 239.019C331.502 243.254 330.293 248.946 331.784 254.243C333.275 259.541 337.274 263.766 342.482 265.546L361.938 272.196C362.743 272.471 363.563 272.601 364.369 272.601C367.492 272.601 370.41 270.637 371.476 267.517C372.818 263.591 370.723 259.321 366.798 257.979L347.341 251.329C346.638 251.089 346.358 250.568 346.246 250.172C346.134 249.777 346.102 249.186 346.578 248.613L375.981 213.187Z" fill="#4F4F33"/>
<path d="M352.825 170.122C348.707 161.727 338.496 151.974 313.114 153.162C299.486 153.803 287.458 157.319 286.953 157.468C282.975 158.644 280.703 162.822 281.879 166.801C283.056 170.778 287.232 173.051 291.212 171.875C291.319 171.844 301.986 168.725 313.821 168.168C322.466 167.761 333.303 168.656 338.1 174.77C337.866 176.287 338.094 177.888 338.852 179.355C340.186 181.939 342.811 183.421 345.531 183.42C346.692 183.42 347.871 183.15 348.973 182.581C353.43 180.278 355.122 174.806 352.825 170.122Z" fill="#4F4F33"/>
<path d="M463.265 217.723C462.957 217.296 455.597 207.153 445.211 198.306C425.887 181.843 411.821 183.297 403.426 187.416C398.744 189.713 396.731 195.075 398.845 199.624C400.592 203.386 405.06 205.019 408.822 203.271C410.321 202.574 411.482 201.446 412.227 200.102C425.762 196.668 445.075 218.215 451.083 226.516C452.551 228.549 454.848 229.629 457.178 229.629C458.701 229.629 460.238 229.168 461.566 228.209C464.931 225.782 465.692 221.087 463.265 217.723Z" fill="#4F4F33"/>
<path d="M179.959 291.438C178.768 287.464 174.579 285.214 170.604 286.402L150.912 292.312C150.196 292.525 149.668 292.264 149.347 292.008C149.027 291.751 148.656 291.29 148.709 290.548L152.016 244.626C152.314 240.488 149.201 236.892 145.064 236.594C140.91 236.296 137.33 239.409 137.032 243.547L133.725 289.469C133.33 294.958 135.658 300.29 139.953 303.731C142.961 306.141 146.661 307.408 150.421 307.408C152.03 307.408 153.651 307.176 155.231 306.702L174.924 300.792C178.897 299.599 181.152 295.411 179.959 291.438Z" fill="#4F4F33"/>
<path d="M113.952 236.646C112.898 234.144 110.806 232.248 108.213 231.445C79.7571 222.63 48.0201 246.843 46.6821 247.878C43.4041 250.415 42.8061 255.124 45.3381 258.404C47.8691 261.685 52.5861 262.292 55.8701 259.764C55.9391 259.711 62.9371 254.361 72.6211 250.025C79.1621 247.096 88.0701 244.151 96.6841 244.581L93.2071 251.375C91.3171 255.068 92.7791 259.594 96.4721 261.484C97.5671 262.045 98.7361 262.311 99.8891 262.311C102.619 262.311 105.252 260.817 106.582 258.22L113.666 244.378C114.902 241.965 115.006 239.146 113.952 236.646Z" fill="#4F4F33"/>
<path d="M224.3 194.573C222.612 194.445 182.786 191.71 163.889 214.737C162.166 216.836 161.464 219.572 161.963 222.242C162.461 224.909 164.101 227.204 166.459 228.536L179.992 236.189C181.161 236.85 182.43 237.164 183.683 237.164C186.302 237.164 188.847 235.791 190.228 233.348C192.27 229.737 190.999 225.154 187.388 223.112L180.725 219.344C196.323 207.796 222.736 209.524 223.171 209.555C227.309 209.858 230.909 206.765 231.222 202.631C231.536 198.494 228.437 194.886 224.3 194.573Z" fill="#4F4F33"/>
<path d="M377.311 308.81C370.443 294.809 358.533 284.321 343.777 279.278C329.018 274.234 313.183 275.24 299.182 282.109C292.321 285.475 286.311 290.058 281.365 295.586L281.919 293.049C288.626 266.277 283.895 237.63 268.931 214.435C262.862 205.028 258.761 194.675 256.739 183.664L253.004 163.315C247 130.615 218.513 106.698 185.268 106.446C130.013 106.047 76.609 122.064 30.742 152.821C3.12701 171.336 -7.48299 206.987 5.51201 237.589L13.599 256.632C17.975 266.938 20.251 277.839 20.364 289.032C20.646 316.634 32.47 343.151 52.811 361.807L116.144 423.564C129.82 436.898 147.996 444.07 166.569 444.068C173.495 444.068 180.479 443.07 187.301 441.023L213.272 433.229C238.388 425.691 257.464 405.093 263.056 379.473L274.874 325.327C276.045 325.631 277.288 325.668 278.506 325.377C310.004 317.85 342.897 328.242 364.353 352.499L367.408 355.952C368.849 357.581 370.906 358.486 373.034 358.486C373.523 358.486 374.017 358.438 374.508 358.34C377.131 357.815 379.277 355.935 380.142 353.404C385.185 338.647 384.181 322.81 377.311 308.81ZM267.32 289.496C267.3 289.573 267.282 289.651 267.265 289.729L248.377 376.269C243.948 396.558 228.841 412.869 208.953 418.839L182.981 426.633C163.095 432.602 141.501 427.305 126.632 412.807L63.214 350.968C63.156 350.912 63.099 350.857 63.04 350.804C45.705 334.945 35.626 312.373 35.387 288.88C35.254 275.711 32.576 262.886 27.427 250.76L19.34 231.717C9.15801 207.74 17.472 179.807 39.107 165.299C81.908 136.599 131.676 121.462 183.162 121.462C183.824 121.462 184.489 121.464 185.152 121.47C211.2 121.667 233.52 140.407 238.224 166.028L241.959 186.377C244.338 199.331 249.164 211.512 256.304 222.58C269.043 242.322 273.057 266.713 267.32 289.496ZM298.927 307.941C296.07 307.94 293.205 308.06 290.337 308.302C294.371 302.974 299.625 298.625 305.799 295.596C316.197 290.496 327.961 289.748 338.918 293.494C349.878 297.239 358.723 305.028 363.823 315.426C366.87 321.636 368.363 328.335 368.274 335.057C349.246 317.504 324.471 307.941 298.927 307.941Z" fill="#4F4F33"/>
<path d="M223.728 312.126C222.959 309.565 220.885 307.605 218.284 306.981C215.68 306.356 212.945 307.164 211.099 309.1L207.916 312.435C185.56 335.866 152.295 345.009 121.105 336.296C118.464 335.558 115.638 336.317 113.722 338.271C111.804 340.225 111.102 343.068 111.889 345.69C119.47 370.95 142.724 387.297 167.838 387.297C173.38 387.297 179.017 386.5 184.591 384.827C215.424 375.574 232.981 342.96 223.728 312.126ZM180.272 370.438C169.18 373.768 157.455 372.578 147.256 367.088C141.201 363.828 136.114 359.285 132.284 353.808C160.679 357.28 189.284 348.72 211.157 330.029C210.673 348.239 198.646 364.923 180.272 370.438Z" fill="#4F4F33"/>
<path d="M483.411 120.137C438.736 87.6712 385.945 69.6302 330.746 67.9632C297.508 66.9562 268.144 89.7852 260.911 122.236L256.828 140.554C255.925 144.603 258.476 148.617 262.525 149.52C266.58 150.422 270.589 147.871 271.491 143.822L275.574 125.505C281.241 100.079 304.223 82.1842 330.291 82.9812C382.461 84.5562 432.355 101.608 474.578 132.292C495.65 147.607 502.903 175.833 491.824 199.409L483.024 218.133C477.422 230.054 474.262 242.769 473.631 255.925C472.506 279.393 461.583 301.567 443.662 316.761C443.6 316.812 443.541 316.865 443.482 316.918L377.774 376.32C362.369 390.246 340.591 394.725 320.943 388.009L295.282 379.239C294.467 378.961 293.663 378.666 292.867 378.353C289.01 376.838 284.646 378.738 283.13 382.601C281.614 386.463 283.516 390.822 287.378 392.338C288.387 392.734 289.414 393.111 290.426 393.456L316.084 402.225C323.711 404.832 331.588 406.102 339.411 406.102C357.038 406.102 374.376 399.644 387.849 387.464L453.471 328.141C474.501 310.267 487.316 284.214 488.638 256.643C489.175 245.461 491.861 234.654 496.622 224.522L505.422 205.798C519.562 175.708 510.305 139.682 483.411 120.137Z" fill="#4F4F33"/>
</g>
<defs>
<clipPath id="clip0">
<rect width="511.999" height="511.999" fill="white"/>
</clipPath>
</defs>
</svg>
